<svg width="25" height="25" viewBox="0 0 25 25" fill="none" xmlns="http://www.w3.org/2000/svg">
<path opacity="0.4" d="M24.128 9.88376C23.6513 9.88376 23.2559 9.48841 23.2559 9.01167V6.68607C23.2559 3.68606 21.314 1.74419 18.314 1.74419H6.68607C3.68606 1.74419 1.74419 3.68606 1.74419 6.68607V9.01167C1.74419 9.48841 1.34884 9.88376 0.872097 9.88376C0.39535 9.88376 0 9.48841 0 9.01167V6.68607C0 2.68606 2.68606 0 6.68607 0H18.314C22.314 0 25.0001 2.68606 25.0001 6.68607V9.01167C25.0001 9.48841 24.6048 9.88376 24.128 9.88376Z" fill="#848D8C"/>
<path opacity="0.4" d="M18.314 25H6.68607C2.68606 25 0 22.3139 0 18.3139V15.9883C0 15.5116 0.39535 15.1162 0.872097 15.1162C1.34884 15.1162 1.74419 15.5116 1.74419 15.9883V18.3139C1.74419 21.3139 3.68606 23.2558 6.68607 23.2558H18.314C21.314 23.2558 23.2559 21.3139 23.2559 18.3139V15.9883C23.2559 15.5116 23.6513 15.1162 24.128 15.1162C24.6048 15.1162 25.0001 15.5116 25.0001 15.9883V18.3139C25.0001 22.3139 22.314 25 18.314 25Z" fill="#848D8C"/>
<path d="M17.6161 8.09298L13.244 5.73248C12.7789 5.48829 12.2324 5.48829 11.7673 5.73248L7.39517 8.09298C7.08121 8.2674 6.88354 8.60457 6.88354 8.98829C6.88354 9.37201 7.08121 9.70924 7.39517 9.88366L11.7673 12.2442C11.9998 12.3721 12.2556 12.4302 12.5115 12.4302C12.7673 12.4302 13.0231 12.3721 13.2557 12.2442L17.6278 9.88366C17.9417 9.70924 18.1394 9.37201 18.1394 8.98829C18.1278 8.60457 17.9301 8.2674 17.6161 8.09298Z" fill="#848D8C"/>
<path d="M11.0354 13.0464L6.96559 11.0115C6.65164 10.8604 6.29116 10.872 5.98883 11.0581C5.6865 11.2441 5.5121 11.5581 5.5121 11.9069V15.7558C5.5121 16.4186 5.88419 17.0232 6.47722 17.3139L10.547 19.3488C10.6865 19.4186 10.8377 19.4534 11.0005 19.4534C11.1865 19.4534 11.361 19.4069 11.5237 19.3023C11.8261 19.1162 12.0005 18.8023 12.0005 18.4535V14.6046C12.0005 13.9418 11.64 13.3488 11.0354 13.0464Z" fill="#848D8C"/>
<path d="M19 11.0581C18.6977 10.872 18.3372 10.8604 18.0233 11.0115L13.9535 13.0464C13.3605 13.3488 12.9884 13.9418 12.9884 14.6046V18.4535C12.9884 18.8023 13.1628 19.1162 13.4651 19.3023C13.6279 19.4069 13.8023 19.4534 13.9884 19.4534C14.1396 19.4534 14.2907 19.4186 14.4419 19.3488L18.5117 17.3139C19.1047 17.0116 19.4768 16.4186 19.4768 15.7558V11.9069C19.4768 11.5581 19.3024 11.2441 19 11.0581Z" fill="#848D8C"/>
</svg>
