<svg width="21" height="23" viewBox="0 0 21 23" fill="none" xmlns="http://www.w3.org/2000/svg">
<path d="M8.16926 13.7592V12.491C8.16926 11.9997 7.80364 11.7597 7.35804 11.954L1.63385 14.4219C0.731234 14.8103 0 14.3305 0 13.3593V11.8511C0 11.0742 0.582702 10.1716 1.30251 9.87452L7.81507 7.07526C7.99787 6.98386 8.15783 6.74392 8.15783 6.53826V3.04205C8.15783 1.9452 8.96905 0.631261 9.94022 0.128537C10.283 -0.0428458 10.6943 -0.0428458 11.0371 0.128537C12.0197 0.631261 12.8309 1.93377 12.8309 3.03062V6.52684C12.8309 6.7325 12.9908 6.97243 13.1736 7.06384L14.3619 7.56656L8.16926 13.7592Z" fill="#848D8C"/>
<path opacity="0.4" d="M21.0001 11.8512V13.3594C21.0001 14.3306 20.2689 14.8105 19.3663 14.422L13.6421 11.9541C13.185 11.7713 12.8308 11.9998 12.8308 12.4911V15.8159C12.8308 16.0787 12.9794 16.4557 13.1736 16.6385L15.8243 19.3007C16.0985 19.5749 16.2242 20.1233 16.0985 20.5004L15.5844 22.0542C15.3559 22.7284 14.5904 23.0368 13.962 22.7284L11.2427 20.4432C10.8314 20.0891 10.1573 20.0891 9.74595 20.4432L7.02667 22.7284C6.39827 23.0483 5.63276 22.7284 5.4271 22.0542L4.91295 20.5004C4.78727 20.1119 4.91295 19.5749 5.18716 19.3007L7.83789 16.6385C8.0207 16.4557 8.16923 16.0787 8.16923 15.8159V13.7593L14.3619 7.56667L19.6976 9.8632C20.4174 10.1717 21.0001 11.0743 21.0001 11.8512Z" fill="#848D8C"/>
</svg>
