<svg width="50" height="50" viewBox="0 0 50 50" fill="none" xmlns="http://www.w3.org/2000/svg">
<path d="M0 10C0 4.47715 4.47715 0 10 0H40C45.5228 0 50 4.47715 50 10V40C50 45.5228 45.5228 50 40 50H10C4.47715 50 0 45.5228 0 40V10Z" fill="#F7F9FB"/>
<path fill-rule="evenodd" clip-rule="evenodd" d="M23.1003 18.3997C23.3932 18.6926 23.3932 19.1674 23.1003 19.4603L17.5607 25L23.1003 30.5397C23.3932 30.8326 23.3932 31.3074 23.1003 31.6003C22.8074 31.8932 22.3326 31.8932 22.0397 31.6003L15.9697 25.5303C15.829 25.3897 15.75 25.1989 15.75 25C15.75 24.8011 15.829 24.6103 15.9697 24.4697L22.0397 18.3997C22.3326 18.1068 22.8074 18.1068 23.1003 18.3997Z" fill="#292D32"/>
<path fill-rule="evenodd" clip-rule="evenodd" d="M15.92 25C15.92 24.5858 16.2558 24.25 16.67 24.25H33.5C33.9142 24.25 34.25 24.5858 34.25 25C34.25 25.4142 33.9142 25.75 33.5 25.75H16.67C16.2558 25.75 15.92 25.4142 15.92 25Z" fill="#292D32"/>
</svg>
