<svg width="18" height="21" viewBox="0 0 18 21" fill="none" xmlns="http://www.w3.org/2000/svg">
<path d="M17.1009 7.08556C16.419 6.33246 15.3911 5.89485 13.9664 5.7422V4.96875C13.9664 3.5745 13.3761 2.23114 12.3381 1.29486C11.2898 0.338223 9.92611 -0.109564 8.51151 0.0227371C6.07921 0.256808 4.03364 2.60769 4.03364 5.15193V5.7422C2.60886 5.89485 1.58099 6.33246 0.899132 7.08556C-0.0880352 8.18467 -0.0575042 9.65016 0.0544426 10.6679L0.766831 16.3364C0.980548 18.3209 1.78453 20.3563 6.16063 20.3563H11.8394C16.2155 20.3563 17.0195 18.3209 17.2332 16.3466L17.9456 10.6577C18.0575 9.65016 18.088 8.18467 17.1009 7.08556ZM8.65399 1.43734C9.67169 1.34574 10.6385 1.66123 11.3916 2.34309C12.1345 3.01477 12.5518 3.9714 12.5518 4.96875V5.68114H5.44824V5.15193C5.44824 3.34043 6.94426 1.60017 8.65399 1.43734ZM9 16.8758C6.87302 16.8758 5.14293 15.1457 5.14293 13.0187C5.14293 10.8917 6.87302 9.16166 9 9.16166C11.127 9.16166 12.8571 10.8917 12.8571 13.0187C12.8571 15.1457 11.127 16.8758 9 16.8758Z" fill="#FEC600"/>
<path d="M8.41993 14.9015C8.22657 14.9015 8.03321 14.8303 7.88055 14.6776L6.87303 13.6701C6.5779 13.375 6.5779 12.8865 6.87303 12.5914C7.16816 12.2962 7.65666 12.2962 7.95179 12.5914L8.44029 13.0799L10.0686 11.5737C10.3739 11.2887 10.8624 11.3091 11.1474 11.6144C11.4323 11.9197 11.412 12.4082 11.1067 12.6931L8.93896 14.698C8.7863 14.8303 8.60312 14.9015 8.41993 14.9015Z" fill="#FEC600"/>
</svg>
