<svg width="18" height="16" viewBox="0 0 18 16" fill="none" xmlns="http://www.w3.org/2000/svg">
<path d="M9.06581 0.547313L15.8445 3.25876C16.1081 3.3642 16.319 3.68053 16.319 3.95921V6.45979C16.319 6.87404 15.98 7.21297 15.5658 7.21297H2.00849C1.59424 7.21297 1.25531 6.87404 1.25531 6.45979V3.95921C1.25531 3.68053 1.4662 3.3642 1.72982 3.25876L8.50847 0.547313C8.6591 0.487059 8.91518 0.487059 9.06581 0.547313Z" stroke="#848D8C" stroke-miterlimit="10" stroke-linecap="round" stroke-linejoin="round"/>
<path d="M16.319 15.4979H1.25531V13.2383C1.25531 12.8241 1.59424 12.4851 2.00849 12.4851H15.5658C15.98 12.4851 16.319 12.8241 16.319 13.2383V15.4979Z" stroke="#848D8C" stroke-miterlimit="10" stroke-linecap="round" stroke-linejoin="round"/>
<path d="M2.76167 12.4851V7.21286" stroke="#848D8C" stroke-miterlimit="10" stroke-linecap="round" stroke-linejoin="round"/>
<path d="M5.77441 12.4851V7.21286" stroke="#848D8C" stroke-miterlimit="10" stroke-linecap="round" stroke-linejoin="round"/>
<path d="M8.78714 12.4851V7.21286" stroke="#848D8C" stroke-miterlimit="10" stroke-linecap="round" stroke-linejoin="round"/>
<path d="M11.7999 12.4851V7.21286" stroke="#848D8C" stroke-miterlimit="10" stroke-linecap="round" stroke-linejoin="round"/>
<path d="M14.8126 12.4851V7.21286" stroke="#848D8C" stroke-miterlimit="10" stroke-linecap="round" stroke-linejoin="round"/>
<path d="M0.502122 15.4979H17.0722" stroke="#848D8C" stroke-miterlimit="10" stroke-linecap="round" stroke-linejoin="round"/>
<path d="M8.78714 5.3299C9.4111 5.3299 9.91692 4.82408 9.91692 4.20013C9.91692 3.57617 9.4111 3.07035 8.78714 3.07035C8.16318 3.07035 7.65737 3.57617 7.65737 4.20013C7.65737 4.82408 8.16318 5.3299 8.78714 5.3299Z" stroke="#848D8C" stroke-miterlimit="10" stroke-linecap="round" stroke-linejoin="round"/>
</svg>
