<svg width="23" height="17" viewBox="0 0 23 17" fill="none" xmlns="http://www.w3.org/2000/svg">
<path opacity="0.4" d="M12.5693 0H6.15243C1.43748 0 0 1.43748 0 6.15243V10.4304C0 15.1453 1.43748 16.5828 6.15243 16.5828H12.5693C17.2843 16.5828 18.7218 15.1453 18.7218 10.4304V6.15243C18.7218 1.43748 17.2843 0 12.5693 0Z" fill="#848D8C"/>
<path d="M21.1833 4.84131C21.0223 4.82981 20.8153 4.81831 20.5853 4.81831C20.1368 4.81831 19.7803 5.1748 19.7803 5.6233V10.9707C19.7803 11.4192 20.1368 11.7757 20.5853 11.7757C20.8153 11.7757 21.0108 11.7642 21.2063 11.7527C23.0002 11.5457 23.0002 10.2807 23.0002 9.36075V7.22178C23.0002 6.30179 23.0002 5.0368 21.1833 4.84131Z" fill="#848D8C"/>
<path d="M5.03722 11.454C4.96822 11.454 4.89922 11.4425 4.83022 11.431C4.37023 11.316 4.08273 10.8445 4.19773 10.3845C4.54273 9.01601 4.54273 7.56703 4.19773 6.19854C4.08273 5.73855 4.35873 5.26706 4.83022 5.15206C5.29022 5.03706 5.75021 5.32455 5.86521 5.78455C6.27921 7.42903 6.27921 9.16551 5.86521 10.7985C5.77321 11.1895 5.41672 11.454 5.03722 11.454Z" fill="#848D8C"/>
<path d="M9.06212 11.4536C8.99312 11.4536 8.92412 11.4421 8.85512 11.4306C8.39513 11.3156 8.10763 10.8442 8.22263 10.3842C8.56763 9.01568 8.56763 7.56669 8.22263 6.19821C8.10763 5.73822 8.38363 5.26672 8.85512 5.15172C9.31512 5.03672 9.78661 5.31272 9.90161 5.78421C10.3156 7.4287 10.3156 9.16517 9.90161 10.7982C9.79811 11.1892 9.44162 11.4536 9.06212 11.4536Z" fill="#848D8C"/>
<path d="M13.087 11.4536C13.018 11.4536 12.949 11.4421 12.88 11.4306C12.42 11.3156 12.1325 10.8442 12.2475 10.3842C12.5925 9.01568 12.5925 7.56669 12.2475 6.19821C12.1325 5.73822 12.4085 5.26672 12.88 5.15172C13.34 5.03672 13.8115 5.31272 13.9265 5.78421C14.3405 7.4287 14.3405 9.16517 13.9265 10.7982C13.823 11.1892 13.4665 11.4536 13.087 11.4536Z" fill="#848D8C"/>
</svg>
