<svg width="22" height="23" viewBox="0 0 22 23" fill="none" xmlns="http://www.w3.org/2000/svg">
<path opacity="0.4" d="M21.3475 5.94072L10.9999 11.9272L0.652325 5.94072C1.11018 5.09368 1.77408 4.34966 2.5181 3.93758L8.63051 0.54943C9.93541 -0.183143 12.0644 -0.183143 13.3693 0.54943L19.4818 3.93758C20.2258 4.34966 20.8897 5.09368 21.3475 5.94072Z" fill="#848D8C"/>
<path opacity="0.6" d="M11.0001 11.927V22.8927C10.1416 22.8927 9.28308 22.7096 8.63063 22.3433L2.51822 18.9551C1.1332 18.1882 0 16.2652 0 14.6856V8.20689C0 7.47432 0.251822 6.67307 0.652448 5.94049L11.0001 11.927Z" fill="#848D8C"/>
<path d="M21.9998 8.20689V14.6856C21.9998 16.2652 20.8666 18.1882 19.4816 18.9551L13.3692 22.3433C12.7167 22.7096 11.8582 22.8927 10.9998 22.8927V11.927L21.3474 5.94049C21.748 6.67307 21.9998 7.47432 21.9998 8.20689Z" fill="#848D8C"/>
</svg>
