<svg width="24" height="24" viewBox="0 0 24 24" fill="none" xmlns="http://www.w3.org/2000/svg">
<path d="M22.8586 15.6346C22.8586 15.6232 22.8471 15.6118 22.8357 15.6003C22.7901 15.5319 22.733 15.4634 22.676 15.4064C22.6646 15.3949 22.6531 15.3721 22.6417 15.3607C21.7173 14.3336 20.3593 13.6945 18.8643 13.6945C17.4264 13.6945 16.114 14.288 15.1782 15.2466C14.2766 16.171 13.7288 17.4377 13.7288 18.83C13.7288 19.7886 14.0027 20.7016 14.4706 21.4776C14.7217 21.8999 15.0412 22.2879 15.4064 22.6074C15.4293 22.6188 15.4407 22.6303 15.4521 22.6417C15.5091 22.6988 15.5662 22.7443 15.6347 22.8014C15.6347 22.8014 15.6347 22.8014 15.6461 22.8014C15.6575 22.8128 15.6689 22.8243 15.6803 22.8243C16.5362 23.5432 17.6432 23.9655 18.8643 23.9655C20.7359 23.9655 22.3678 22.9612 23.258 21.4776C23.5205 21.0326 23.7259 20.5418 23.8514 20.0283C23.9541 19.6403 23.9998 19.2408 23.9998 18.83C23.9998 17.6203 23.5775 16.5019 22.8586 15.6346ZM20.7815 19.6631H19.7202V20.7701C19.7202 21.238 19.3322 21.626 18.8643 21.626C18.3964 21.626 18.0084 21.238 18.0084 20.7701V19.6631H16.9471C16.4792 19.6631 16.0912 19.2751 16.0912 18.8072C16.0912 18.3393 16.4792 17.9512 16.9471 17.9512H18.0084V16.9356C18.0084 16.4677 18.3964 16.0797 18.8643 16.0797C19.3322 16.0797 19.7202 16.4677 19.7202 16.9356V17.9512H20.7815C21.2494 17.9512 21.6375 18.3393 21.6375 18.8072C21.6375 19.2751 21.2609 19.6631 20.7815 19.6631Z" fill="#848D8C"/>
<path opacity="0.4" d="M19.834 4.17679L12.6557 0.308128C11.9025 -0.102709 10.9896 -0.102709 10.2249 0.308128L3.04671 4.17679C2.52175 4.4621 2.2022 5.02132 2.2022 5.63758C2.2022 6.25384 2.52175 6.81299 3.04671 7.0983L10.2249 10.967C10.6015 11.1725 11.0238 11.2752 11.4346 11.2752C11.8455 11.2752 12.2677 11.1725 12.6443 10.967L19.8226 7.0983C20.3475 6.81299 20.6671 6.25384 20.6671 5.63758C20.6899 5.02132 20.3589 4.4621 19.834 4.17679Z" fill="#848D8C"/>
<path opacity="0.4" d="M9.04982 12.3134L2.37373 8.96964C1.86018 8.70716 1.26674 8.74139 0.776017 9.03811C0.285295 9.33482 0 9.85982 0 10.4304V16.7413C0 17.8369 0.604843 18.8183 1.58629 19.309L8.2624 22.6414C8.49064 22.7556 8.74171 22.8126 8.99277 22.8126C9.28949 22.8126 9.58621 22.7327 9.84869 22.5615C10.3394 22.2648 10.6247 21.7398 10.6247 21.1692V14.8583C10.6361 13.7856 10.0313 12.8041 9.04982 12.3134Z" fill="#848D8C"/>
<path opacity="0.4" d="M22.8927 10.4423V15.6804C22.8813 15.669 22.8699 15.6462 22.8584 15.6348C22.8584 15.6234 22.847 15.6119 22.8356 15.6005C22.79 15.532 22.7329 15.4636 22.6758 15.4065C22.6644 15.3951 22.653 15.3723 22.6416 15.3609C21.7172 14.3338 20.3592 13.6947 18.8642 13.6947C17.4263 13.6947 16.1139 14.2881 15.1781 15.2467C14.2765 16.1711 13.7287 17.4379 13.7287 18.8302C13.7287 19.7888 14.0026 20.7018 14.4705 21.4778C14.6645 21.8087 14.9042 22.1054 15.1667 22.3793L14.6303 22.6532C14.402 22.7673 14.151 22.8244 13.8999 22.8244C13.6032 22.8244 13.3065 22.7446 13.0326 22.5734C12.5533 22.2767 12.2566 21.7517 12.2566 21.1811V14.8815C12.2566 13.786 12.8614 12.8045 13.8429 12.3138L20.5189 8.98148C21.0325 8.719 21.6259 8.74182 22.1167 9.04995C22.596 9.34666 22.8927 9.87166 22.8927 10.4423Z" fill="#848D8C"/>
</svg>
