<svg width="23" height="23" viewBox="0 0 23 23" fill="none" xmlns="http://www.w3.org/2000/svg">
<path d="M10.2601 15.8616C9.97903 15.8616 9.69799 15.7155 9.54061 15.4569C9.30454 15.0635 9.4282 14.5351 9.83289 14.299L10.8334 13.7033V12.4892C10.8334 12.0283 11.2156 11.6461 11.6765 11.6461C12.1374 11.6461 12.5196 12.0283 12.5196 12.4892V14.1754C12.5196 14.4677 12.3622 14.7487 12.1149 14.8948L10.7097 15.7379C10.5523 15.8166 10.4062 15.8616 10.2601 15.8616Z" fill="#848D8C"/>
<path opacity="0.4" d="M22.3111 10.8367L21.6141 18.4584C21.378 20.7066 20.4562 22.9999 15.51 22.9999H6.9441C1.99789 22.9999 1.0761 20.7066 0.851271 18.4696L0.165547 11.1515C0.176788 11.1627 0.18803 11.174 0.210512 11.1852C0.592719 11.4325 0.963685 11.6798 1.36837 11.9046C1.52575 12.0058 1.69437 12.0957 1.863 12.1857C3.13327 12.8826 4.49348 13.4335 5.89865 13.8157C6.46072 13.9843 7.03403 14.108 7.61858 14.2091C7.84341 16.0077 9.38348 17.4017 11.2383 17.4017C13.1156 17.4017 14.6669 15.974 14.8693 14.1417V14.1304C15.4426 14.018 16.0159 13.8719 16.578 13.7033C17.9831 13.2648 19.3433 12.6803 20.6136 11.9384C20.6811 11.9046 20.7373 11.8709 20.7822 11.8372C21.2993 11.5562 21.794 11.2302 22.2661 10.8929C22.2886 10.8817 22.2998 10.8592 22.3111 10.8367Z" fill="#848D8C"/>
<path d="M21.4565 5.85676C20.501 4.80007 18.916 4.27173 16.589 4.27173H16.3192V4.22676C16.3192 2.33821 16.3192 0 12.0925 0H10.3838C6.15703 0 6.15703 2.33821 6.15703 4.22676V4.27173H5.88723C3.56027 4.27173 1.96399 4.80007 1.01971 5.85676C-0.0931823 7.10455 -0.0594583 8.75703 0.0529556 9.89241L0.0641969 9.97111L0.16537 11.1514C0.176611 11.1627 0.199094 11.1739 0.221576 11.1852C0.603783 11.4325 0.974749 11.6798 1.37944 11.9046C1.53682 12.0058 1.70544 12.0957 1.87406 12.1857C3.14434 12.8826 4.50454 13.4335 5.89847 13.8157C5.9322 16.7272 8.31537 19.0879 11.2381 19.0879C14.1834 19.0879 16.5778 16.6935 16.5778 13.7482V13.7032C17.9942 13.2761 19.3544 12.6803 20.6247 11.9383C20.6921 11.9046 20.7371 11.8709 20.7933 11.8372C21.3104 11.5561 21.805 11.2301 22.2772 10.8929C22.2884 10.8817 22.3109 10.8592 22.3221 10.8367L22.3671 10.432L22.4233 9.90366C22.4345 9.83621 22.4345 9.78 22.4458 9.70131C22.5357 8.57717 22.5132 7.02586 21.4565 5.85676ZM7.76454 4.22676C7.76454 2.31572 7.76454 1.59628 10.3838 1.59628H12.0925C14.7117 1.59628 14.7117 2.31572 14.7117 4.22676V4.27173H7.76454V4.22676ZM11.2381 17.4017C9.3833 17.4017 7.84323 16.0077 7.6184 14.2091C7.59592 14.063 7.58468 13.9056 7.58468 13.7482C7.58468 11.736 9.22592 10.0948 11.2381 10.0948C13.2503 10.0948 14.8916 11.736 14.8916 13.7482C14.8916 13.8831 14.8803 14.0068 14.8691 14.1304V14.1417C14.6668 15.974 13.1154 17.4017 11.2381 17.4017Z" fill="#848D8C"/>
</svg>
