<svg width="23" height="23" viewBox="0 0 23 23" fill="none" xmlns="http://www.w3.org/2000/svg">
<path d="M21.7234 12.6499V13.7999H20.7229C19.8719 13.7999 19.182 14.4899 19.182 15.3524V15.6974C19.182 16.5599 18.492 17.2499 17.6295 17.2499C16.7785 17.2499 16.0885 16.5599 16.0885 15.6974V15.3524C16.0885 14.4899 15.387 13.7999 14.536 13.7999C13.685 13.7999 12.995 14.4899 12.995 15.3524V15.6974C12.995 16.5599 12.2935 17.2499 11.4425 17.2499C10.5916 17.2499 9.89006 16.5599 9.89006 15.6974V15.3524C9.89006 14.4899 9.20007 13.7999 8.34908 13.7999C7.49809 13.7999 6.7966 14.4899 6.7966 15.3524V15.6974C6.7966 16.5599 6.10661 17.2499 5.25562 17.2499C4.39313 17.2499 3.70314 16.5599 3.70314 15.6974V15.3294C3.70314 14.4784 3.02464 13.7884 2.18515 13.7769H1.27666V12.6499C1.27666 11.0629 2.47265 9.71744 4.09413 9.32645C4.41613 9.24595 4.74962 9.19995 5.10612 9.19995H17.894C18.2505 9.19995 18.584 9.24595 18.906 9.32645C20.5274 9.71744 21.7234 11.0629 21.7234 12.6499Z" fill="#848D8C"/>
<path opacity="0.4" d="M18.9059 5.94542V9.32638C18.5839 9.24588 18.2504 9.19988 17.8939 9.19988H5.10603C4.74954 9.19988 4.41604 9.24588 4.09404 9.32638V5.94542C4.09404 4.56544 5.33603 3.44995 6.87701 3.44995H16.1229C17.6639 3.44995 18.9059 4.56544 18.9059 5.94542Z" fill="#848D8C"/>
<path d="M7.76258 1.7824V3.46138H6.87709C6.57809 3.46138 6.3021 3.49588 6.0376 3.56488V1.7824C6.0376 1.37991 6.4286 1.03491 6.90009 1.03491C7.37158 1.03491 7.76258 1.37991 7.76258 1.7824Z" fill="#848D8C"/>
<path d="M16.9628 1.52963V3.56511C16.6983 3.48461 16.4223 3.45011 16.1233 3.45011H15.2378V1.52963C15.2378 1.05814 15.6288 0.667142 16.1003 0.667142C16.5718 0.667142 16.9628 1.05814 16.9628 1.52963Z" fill="#848D8C"/>
<path d="M12.3627 0.942989V3.44996H10.6377V0.942989C10.6377 0.425495 11.0287 0 11.5002 0C11.9717 0 12.3627 0.425495 12.3627 0.942989Z" fill="#848D8C"/>
<path opacity="0.4" d="M22.1372 21.2749H21.7232V13.8H20.7228C19.8718 13.8 19.1818 14.49 19.1818 15.3525V15.6975C19.1818 16.56 18.4918 17.25 17.6293 17.25C16.7783 17.25 16.0883 16.56 16.0883 15.6975V15.3525C16.0883 14.49 15.3868 13.8 14.5358 13.8C13.6848 13.8 12.9948 14.49 12.9948 15.3525V15.6975C12.9948 16.56 12.2934 17.25 11.4424 17.25C10.5914 17.25 9.88988 16.56 9.88988 15.6975V15.3525C9.88988 14.49 9.19989 13.8 8.3489 13.8C7.49791 13.8 6.79642 14.49 6.79642 15.3525V15.6975C6.79642 16.56 6.10643 17.25 5.25544 17.25C4.39295 17.25 3.70296 16.56 3.70296 15.6975V15.3295C3.70296 14.4785 3.02446 13.7885 2.18497 13.777H1.27648V21.2749H0.86249C0.390995 21.2749 0 21.6659 0 22.1374C0 22.6089 0.390995 22.9999 0.86249 22.9999H1.27648H21.7232H22.1372C22.6087 22.9999 22.9997 22.6089 22.9997 22.1374C22.9997 21.6659 22.6087 21.2749 22.1372 21.2749Z" fill="#848D8C"/>
</svg>
