<svg width="21" height="23" viewBox="0 0 21 23" fill="none" xmlns="http://www.w3.org/2000/svg">
<path opacity="0.4" d="M5.74999 23H14.95C18.124 23 20.7 20.424 20.7 17.25V5.74999C20.7 2.576 18.124 0 14.95 0H5.74999C2.576 0 0 2.576 0 5.74999V17.25C0 20.424 2.576 23 5.74999 23Z" fill="#848D8C"/>
<path d="M13.7999 4.26645H6.89994C5.71544 4.26645 4.73794 5.23245 4.73794 6.42845V7.57845C4.73794 8.76295 5.70394 9.74044 6.89994 9.74044H13.7999C14.9844 9.74044 15.9619 8.77445 15.9619 7.57845V6.42845C15.9619 5.23245 14.9959 4.26645 13.7999 4.26645Z" fill="#848D8C"/>
<path d="M5.93351 14.8581C5.77251 14.8581 5.62301 14.8236 5.48501 14.7661C5.34701 14.7086 5.22051 14.6281 5.11701 14.5246C4.89851 14.3061 4.77201 14.0186 4.77201 13.7081C4.77201 13.5586 4.80651 13.4091 4.86401 13.2711C4.92151 13.1216 5.00201 13.0066 5.11701 12.8916C5.38151 12.6271 5.78401 12.5006 6.15201 12.5811C6.22101 12.5926 6.30151 12.6156 6.37051 12.6501C6.43951 12.6731 6.50851 12.7076 6.56601 12.7536C6.63501 12.7881 6.69251 12.8456 6.73851 12.8916C6.84201 13.0066 6.93401 13.1216 6.99151 13.2711C7.04901 13.4091 7.07201 13.5586 7.07201 13.7081C7.07201 14.0186 6.95701 14.3061 6.73851 14.5246C6.52001 14.7431 6.23251 14.8581 5.93351 14.8581Z" fill="#848D8C"/>
<path d="M10.5222 14.8582C10.2232 14.8582 9.93566 14.7432 9.71716 14.5247C9.49866 14.3062 9.37216 14.0187 9.37216 13.7082C9.37216 13.4092 9.49866 13.1102 9.71716 12.8917C10.1427 12.4663 10.9132 12.4663 11.3387 12.8917C11.4422 13.0067 11.5342 13.1217 11.5917 13.2712C11.6492 13.4092 11.6722 13.5587 11.6722 13.7082C11.6722 14.0187 11.5572 14.3062 11.3387 14.5247C11.1202 14.7432 10.8327 14.8582 10.5222 14.8582Z" fill="#848D8C"/>
<path d="M15.1223 14.8582C14.8233 14.8582 14.5358 14.7432 14.3173 14.5247C14.0988 14.3062 13.9723 14.0187 13.9723 13.7082C13.9723 13.4092 14.0988 13.1102 14.3173 12.8917C14.7428 12.4663 15.5133 12.4663 15.9388 12.8917C16.1573 13.1102 16.2838 13.4092 16.2838 13.7082C16.2838 13.8577 16.2493 14.0072 16.1918 14.1452C16.1343 14.2832 16.0538 14.4097 15.9388 14.5247C15.7203 14.7432 15.4328 14.8582 15.1223 14.8582Z" fill="#848D8C"/>
<path d="M5.93351 19.458C5.62301 19.458 5.33551 19.343 5.11701 19.1245C4.89851 18.906 4.77201 18.6185 4.77201 18.308C4.77201 18.009 4.89851 17.71 5.11701 17.4915C5.22051 17.388 5.34701 17.3075 5.48501 17.25C5.77251 17.135 6.08301 17.135 6.37051 17.25C6.43951 17.273 6.50851 17.3075 6.56601 17.3535C6.63501 17.388 6.69251 17.4455 6.73851 17.4915C6.95701 17.71 7.08351 18.009 7.08351 18.308C7.08351 18.6185 6.95701 18.906 6.73851 19.1245C6.52001 19.343 6.23251 19.458 5.93351 19.458Z" fill="#848D8C"/>
<path d="M10.5222 19.4581C10.2232 19.4581 9.93566 19.3431 9.71716 19.1246C9.49866 18.9061 9.37216 18.6186 9.37216 18.3081C9.37216 18.2276 9.38366 18.1586 9.39516 18.0781C9.41816 18.0091 9.44116 17.9401 9.46416 17.8711C9.49866 17.8021 9.53316 17.7331 9.56766 17.6641C9.61366 17.6066 9.65966 17.5491 9.71716 17.4916C9.82066 17.3881 9.94716 17.3076 10.0852 17.2501C10.5107 17.0776 11.0167 17.1696 11.3387 17.4916C11.5572 17.7101 11.6722 18.0091 11.6722 18.3081C11.6722 18.6186 11.5572 18.9061 11.3387 19.1246C11.2352 19.2281 11.1087 19.3086 10.9707 19.3661C10.8327 19.4236 10.6832 19.4581 10.5222 19.4581Z" fill="#848D8C"/>
<path d="M15.1223 19.4581C14.9728 19.4581 14.8233 19.4236 14.6853 19.3661C14.5473 19.3086 14.4208 19.2281 14.3173 19.1246C14.0988 18.9061 13.9838 18.6186 13.9838 18.3081C13.9838 18.0091 14.0988 17.7101 14.3173 17.4916C14.6278 17.1696 15.1453 17.0776 15.5708 17.2501C15.7088 17.3076 15.8353 17.3881 15.9388 17.4916C16.1573 17.7101 16.2723 18.0091 16.2723 18.3081C16.2723 18.6186 16.1573 18.9061 15.9388 19.1246C15.7203 19.3431 15.4328 19.4581 15.1223 19.4581Z" fill="#848D8C"/>
</svg>
