<svg width="25" height="24" viewBox="0 0 25 24" fill="none" xmlns="http://www.w3.org/2000/svg">
<path opacity="0.4" d="M24.3041 13.4455C24.1299 11.5296 23.619 9.48607 19.8918 9.48607H5.0759C1.3487 9.48607 0.849419 11.5296 0.663639 13.4455L0.0134117 20.5167C-0.0678667 21.3992 0.222413 22.2816 0.826196 22.9435C1.44159 23.6169 2.31243 24.0001 3.24133 24.0001H5.42423C7.30525 24.0001 7.6652 22.9202 7.89742 22.212L8.12964 21.5153C8.3967 20.7141 8.46637 20.5167 9.51138 20.5167H15.4563C16.5013 20.5167 16.5362 20.6328 16.838 21.5153L17.0703 22.212C17.3025 22.9202 17.6624 24.0001 19.5435 24.0001H21.7264C22.6436 24.0001 23.5261 23.6169 24.1415 22.9435C24.7453 22.2816 25.0356 21.3992 24.9543 20.5167L24.3041 13.4455Z" fill="#848D8C"/>
<path d="M22.9336 6.00299H21.7724C21.7608 6.00299 21.7608 6.00299 21.7492 6.00299L21.308 3.90136C20.89 1.8694 20.0191 0 16.559 0H13.3543H11.6126H8.40794C4.9478 0 4.07696 1.8694 3.65896 3.90136L3.21773 6.00299C3.20612 6.00299 3.20612 6.00299 3.19451 6.00299H2.03339C1.55733 6.00299 1.16255 6.39777 1.16255 6.87383C1.16255 7.34989 1.55733 7.74467 2.03339 7.74467H2.85779L2.37012 10.0669C2.99712 9.70697 3.86796 9.48635 5.07553 9.48635H19.8914C21.099 9.48635 21.9698 9.70697 22.5968 10.0669L22.1092 7.74467H22.9336C23.4096 7.74467 23.8044 7.34989 23.8044 6.87383C23.8044 6.39777 23.4096 6.00299 22.9336 6.00299Z" fill="#848D8C"/>
<path d="M9.00036 15.8724H5.517C5.04094 15.8724 4.64616 15.4776 4.64616 15.0016C4.64616 14.5255 5.04094 14.1307 5.517 14.1307H9.00036C9.47642 14.1307 9.8712 14.5255 9.8712 15.0016C9.8712 15.4776 9.47642 15.8724 9.00036 15.8724Z" fill="#848D8C"/>
<path d="M19.4502 15.8724H15.9668C15.4907 15.8724 15.096 15.4776 15.096 15.0016C15.096 14.5255 15.4907 14.1307 15.9668 14.1307H19.4502C19.9262 14.1307 20.321 14.5255 20.321 15.0016C20.321 15.4776 19.9262 15.8724 19.4502 15.8724Z" fill="#848D8C"/>
</svg>
