<svg width="67" height="67" viewBox="0 0 67 67" fill="none" xmlns="http://www.w3.org/2000/svg">
<path opacity="0.4" d="M66.9921 23.4306V48.4186C66.9921 56.0891 60.7619 62.2859 53.0913 62.2859H14.7385L26.6966 50.3278L30.984 46.0404L53.5938 23.4306H66.9921Z" fill="#EB5757"/>
<path opacity="0.4" d="M43.5447 23.4306L6.69918 60.2761C2.67967 57.8644 0 53.443 0 48.4186V23.4306H43.5447Z" fill="#EB5757"/>
<path d="M66.992 18.54V23.4304H53.5936L65.2167 11.8073C66.3556 13.7836 66.992 16.0948 66.992 18.54Z" fill="#EB5757"/>
<path d="M60.2926 6.68283L43.5447 23.4308H0V18.5404C0 10.8698 6.23024 4.67307 13.9008 4.67307H53.091C55.7372 4.67307 58.1824 5.40998 60.2926 6.68283Z" fill="#EB5757"/>
<path d="M20.8011 46.1743L15.9107 51.0647H13.3985C12.0252 51.0647 10.8863 49.9259 10.8863 48.5526C10.8863 47.1792 12.0252 46.0404 13.3985 46.0404H20.0977C20.3322 46.0404 20.5667 46.0739 20.8011 46.1743Z" fill="#EB5757"/>
<path d="M44.3823 48.5526C44.3823 49.9259 43.2434 51.0647 41.8701 51.0647H28.4718C27.8018 51.0647 27.1654 50.7633 26.6965 50.3278L30.9839 46.0404H41.8701C43.2434 46.0404 44.3823 47.1792 44.3823 48.5526Z" fill="#EB5757"/>
<path d="M66.2214 0.753658C65.2165 -0.251219 63.5752 -0.251219 62.5703 0.753658L0.770341 62.5871C-0.234537 63.592 -0.234537 65.2333 0.770341 66.2382C1.27278 66.7071 1.9092 66.9751 2.57912 66.9751C3.24904 66.9751 3.88546 66.7071 4.3879 66.2047L66.2214 4.37122C67.2597 3.36634 67.2597 1.75854 66.2214 0.753658Z" fill="#EB5757"/>
</svg>
