<svg width="24" height="22" viewBox="0 0 24 22" fill="none" xmlns="http://www.w3.org/2000/svg">
<path d="M19.082 13.0204C16.6013 13.0204 14.5922 15.0296 14.5922 17.5102C14.5922 18.352 14.8279 19.1489 15.2432 19.8224C16.0177 21.1244 17.4432 21.9999 19.082 21.9999C20.7207 21.9999 22.1462 21.1244 22.9207 19.8224C23.336 19.1489 23.5717 18.352 23.5717 17.5102C23.5717 15.0296 21.5626 13.0204 19.082 13.0204ZM21.4054 17.0275L19.0146 19.2387C18.8575 19.3846 18.6442 19.4632 18.4421 19.4632C18.2289 19.4632 18.0157 19.3846 17.8473 19.2163L16.736 18.1051C16.4105 17.7795 16.4105 17.2408 16.736 16.9153C17.0615 16.5898 17.6003 16.5898 17.9258 16.9153L18.4646 17.454L20.2605 15.7928C20.5972 15.4785 21.136 15.501 21.4503 15.8377C21.7646 16.1744 21.7422 16.702 21.4054 17.0275Z" fill="#848D8C"/>
<path d="M22.4489 4.64693V6.2857H0V4.64693C0 2.07652 2.08778 0 4.65818 0H17.7907C20.3611 0 22.4489 2.07652 22.4489 4.64693Z" fill="#848D8C"/>
<path opacity="0.4" d="M0 6.28571V14.6592C0 17.2296 2.07654 19.3061 4.64694 19.3061H11.6735C12.3245 19.3061 12.8857 18.7561 12.8295 18.1051C12.6724 16.3877 13.2224 14.5245 14.749 13.0428C15.3775 12.4255 16.152 11.9541 16.9938 11.6847C18.3969 11.2357 19.755 11.2918 20.956 11.6959C21.6856 11.9428 22.4489 11.4153 22.4489 10.6408V6.28571H0ZM6.73468 15.5459H4.48978C4.02958 15.5459 3.64795 15.1643 3.64795 14.7041C3.64795 14.2439 4.02958 13.8622 4.48978 13.8622H6.73468C7.19488 13.8622 7.57651 14.2439 7.57651 14.7041C7.57651 15.1643 7.19488 15.5459 6.73468 15.5459Z" fill="#848D8C"/>
<path d="M7.57685 14.7041C7.57685 15.1643 7.19522 15.5459 6.73501 15.5459H4.49012C4.02992 15.5459 3.64829 15.1643 3.64829 14.7041C3.64829 14.2439 4.02992 13.8623 4.49012 13.8623H6.73501C7.19522 13.8623 7.57685 14.2439 7.57685 14.7041Z" fill="#848D8C"/>
</svg>
