<svg width="70" height="66" viewBox="0 0 70 66" fill="none" xmlns="http://www.w3.org/2000/svg">
<path d="M63.2334 0H53.4334C49.2 0 46.6667 2.53334 46.6667 6.76669V16.5667C46.6667 20.8001 49.2 23.3334 53.4334 23.3334H63.2334C67.4667 23.3334 70.0001 20.8001 70.0001 16.5667V6.76669C70.0001 2.53334 67.4667 0 63.2334 0ZM63.9667 11.0334C63.5667 11.4334 63.0334 11.6334 62.5001 11.6334C61.9667 11.6334 61.4334 11.4334 61.0334 11.0334L60.4334 10.4334V17.9001C60.4334 19.0667 59.5 20.0001 58.3334 20.0001C57.1667 20.0001 56.2334 19.0667 56.2334 17.9001V10.4334L55.6334 11.0334C54.8334 11.8334 53.5 11.8334 52.7 11.0334C51.9 10.2334 51.9 8.90003 52.7 8.10003L56.8667 3.93335C57.0334 3.76668 57.2667 3.63335 57.5 3.53335C57.5667 3.50001 57.6334 3.50001 57.7 3.46668C57.8667 3.40001 58.0334 3.36668 58.2334 3.36668C58.3 3.36668 58.3667 3.36668 58.4334 3.36668C58.6667 3.36668 58.8667 3.40001 59.1 3.50001C59.1334 3.50001 59.1334 3.50001 59.1667 3.50001C59.4 3.60001 59.6 3.73335 59.7667 3.90001C59.8 3.93335 59.8 3.93335 59.8334 3.93335L64.0001 8.10003C64.8001 8.90003 64.8001 10.2334 63.9667 11.0334Z" fill="#27AE60"/>
<path opacity="0.4" d="M66.6669 22.5667V26.6668H0V21.8001C0 14.1667 6.20002 8.00003 13.8334 8.00003H46.6668V16.5667C46.6668 20.8001 49.2002 23.3334 53.4335 23.3334H63.2336C64.5669 23.3334 65.7002 23.1001 66.6669 22.5667Z" fill="#27AE60"/>
<path d="M0 26.6668V51.5336C0 59.167 6.20002 65.3336 13.8334 65.3336H52.8335C60.4669 65.3336 66.6669 59.167 66.6669 51.5336V26.6668H0ZM20.0001 54.1669H13.3334C11.9667 54.1669 10.8334 53.0336 10.8334 51.6669C10.8334 50.3003 11.9667 49.1669 13.3334 49.1669H20.0001C21.3667 49.1669 22.5001 50.3003 22.5001 51.6669C22.5001 53.0336 21.3667 54.1669 20.0001 54.1669ZM41.6668 54.1669H28.3334C26.9668 54.1669 25.8334 53.0336 25.8334 51.6669C25.8334 50.3003 26.9668 49.1669 28.3334 49.1669H41.6668C43.0335 49.1669 44.1668 50.3003 44.1668 51.6669C44.1668 53.0336 43.0335 54.1669 41.6668 54.1669Z" fill="#27AE60"/>
</svg>
