<svg width="70" height="66" viewBox="0 0 70 66" fill="none" xmlns="http://www.w3.org/2000/svg">
<path opacity="0.4" d="M66.6667 22.5667V26.6667H0V21.8C0 14.1667 6.20001 8.00001 13.8333 8.00001H46.6667V16.5667C46.6667 20.8 49.2 23.3334 53.4334 23.3334H63.2334C64.5667 23.3334 65.7001 23.1 66.6667 22.5667Z" fill="#EB5757"/>
<path d="M0 26.6665V51.5332C0 59.1666 6.20001 65.3332 13.8333 65.3332H52.8334C60.4667 65.3332 66.6667 59.1666 66.6667 51.5332V26.6665H0ZM20 54.1666H13.3333C11.9667 54.1666 10.8333 53.0332 10.8333 51.6665C10.8333 50.2999 11.9667 49.1665 13.3333 49.1665H20C21.3667 49.1665 22.5 50.2999 22.5 51.6665C22.5 53.0332 21.3667 54.1666 20 54.1666ZM41.6667 54.1666H28.3334C26.9667 54.1666 25.8334 53.0332 25.8334 51.6665C25.8334 50.2999 26.9667 49.1665 28.3334 49.1665H41.6667C43.0334 49.1665 44.1667 50.2999 44.1667 51.6665C44.1667 53.0332 43.0334 54.1666 41.6667 54.1666Z" fill="#EB5757"/>
<path d="M63.2333 0H53.4333C49.2 0 46.6667 2.53334 46.6667 6.76667V16.5667C46.6667 20.8 49.2 23.3334 53.4333 23.3334H63.2333C67.4667 23.3334 70 20.8 70 16.5667V6.76667C70 2.53334 67.4667 0 63.2333 0ZM64.4667 14.9667C64.8334 15.4 65.0334 15.8667 65.0334 16.4333C65.0334 16.9 64.8334 17.4333 64.4667 17.8C63.7 18.5667 62.4 18.5667 61.6333 17.8L58.3333 14.5L55.0667 17.8333C54.3 18.6 53 18.6 52.2 17.8C51.4333 17.0333 51.4333 15.7333 52.2 14.9667L55.5333 11.7L52.2333 8.40001C51.4667 7.63334 51.4333 6.33334 52.2 5.53334C52.9667 4.73334 54.2667 4.76667 55.0667 5.56667L58.3333 8.86668L61.6667 5.53334C62.4333 4.76667 63.7334 4.76667 64.5 5.53334C64.8667 5.96667 65.0334 6.46667 65.0667 7.00001C65.0667 7.46667 64.8667 8.00001 64.5334 8.40001L61.2 11.7333L64.4667 14.9667Z" fill="#EB5757"/>
</svg>
