<svg width="20" height="22" viewBox="0 0 20 22" fill="none" xmlns="http://www.w3.org/2000/svg">
<path d="M5.88359 11.2051H13.0462" stroke="#0088FE" stroke-width="1.5" stroke-miterlimit="10" stroke-linecap="round" stroke-linejoin="round"/>
<path d="M5.88359 15.298H10.3653" stroke="#0088FE" stroke-width="1.5" stroke-miterlimit="10" stroke-linecap="round" stroke-linejoin="round"/>
<path d="M7.93005 4.86085H12.023C14.0694 4.86085 14.0694 3.83762 14.0694 2.81439C14.0694 0.767924 13.0462 0.767924 12.023 0.767924H7.93005C6.90682 0.767924 5.88359 0.767924 5.88359 2.81439C5.88359 4.86085 6.90682 4.86085 7.93005 4.86085Z" stroke="#0088FE" stroke-width="1.5" stroke-miterlimit="10" stroke-linecap="round" stroke-linejoin="round"/>
<path d="M14.0694 2.83487C17.4768 3.01906 19.1856 4.27763 19.1856 8.9538V15.0932C19.1856 19.1861 18.1624 21.2326 13.0462 21.2326H6.90682C1.79066 21.2326 0.767424 19.1861 0.767424 15.0932V8.9538C0.767424 4.28786 2.47622 3.01906 5.88359 2.83487" stroke="#0088FE" stroke-width="1.5" stroke-miterlimit="10" stroke-linecap="round" stroke-linejoin="round"/>
</svg>
