<svg width="23" height="23" viewBox="0 0 23 23" fill="none" xmlns="http://www.w3.org/2000/svg">
<path opacity="0.6" d="M18.0416 9.82615V11.5743H0V9.82615C0 7.17533 2.1595 5.01583 4.81032 5.01583H13.2312C15.8821 5.01583 18.0416 7.17533 18.0416 9.82615Z" fill="#848D8C"/>
<path opacity="0.4" d="M18.0416 11.5742V18.1898C18.0416 20.8406 15.8821 23.0001 13.2312 23.0001H4.81032C2.1595 23.0001 0 20.8406 0 18.1898V11.5742H18.0416Z" fill="#848D8C"/>
<path d="M3.99921 3.71343C3.53075 3.71343 3.14227 3.32495 3.14227 2.85648V0.856945C3.14227 0.388482 3.53075 0 3.99921 0C4.46768 0 4.85616 0.388482 4.85616 0.856945V2.85648C4.85616 3.33637 4.46768 3.71343 3.99921 3.71343Z" fill="#848D8C"/>
<path d="M8.56974 3.71343C8.10128 3.71343 7.7128 3.32495 7.7128 2.85648V0.856945C7.7128 0.388482 8.10128 0 8.56974 0C9.03821 0 9.42669 0.388482 9.42669 0.856945V2.85648C9.42669 3.33637 9.03821 3.71343 8.56974 3.71343Z" fill="#848D8C"/>
<path d="M13.1398 3.71343C12.6713 3.71343 12.2828 3.32495 12.2828 2.85648V0.856945C12.2828 0.388482 12.6713 0 13.1398 0C13.6082 0 13.9967 0.388482 13.9967 0.856945V2.85648C13.9967 3.33637 13.6082 3.71343 13.1398 3.71343Z" fill="#848D8C"/>
<path d="M22.452 14.2249C22.452 16.6815 20.4639 18.6696 18.0073 18.6696V9.76881C20.4525 9.76881 22.452 11.7684 22.452 14.2249Z" fill="#848D8C"/>
</svg>
