<svg width="15" height="23" viewBox="0 0 15 23" fill="none" xmlns="http://www.w3.org/2000/svg">
<path d="M14.95 12.2474V16.5024C14.95 20.0904 11.6035 22.9999 7.47499 22.9999C3.3465 22.9999 0 20.0904 0 16.5024V12.2474C0 15.8354 3.3465 18.3999 7.47499 18.3999C11.6035 18.3999 14.95 15.8354 14.95 12.2474Z" fill="#848D8C"/>
<path opacity="0.4" d="M14.95 6.49738V12.2474C14.95 15.8354 11.6035 18.3999 7.47499 18.3999C3.3465 18.3999 0 15.8354 0 12.2474V6.49738C0 7.54388 0.287502 8.50988 0.793502 9.33788C2.024 11.3619 4.55399 12.6499 7.47499 12.6499C10.396 12.6499 12.926 11.3619 14.1565 9.33788C14.6625 8.50988 14.95 7.54388 14.95 6.49738Z" fill="#848D8C"/>
<path d="M14.95 6.49749C14.95 7.54399 14.6625 8.50999 14.1565 9.33799C12.926 11.362 10.396 12.65 7.47499 12.65C4.55399 12.65 2.024 11.362 0.793502 9.33799C0.287502 8.50999 0 7.54399 0 6.49749C0 2.9095 3.3465 0 7.47499 0C9.54499 0 11.408 0.724499 12.765 1.8975C14.1105 3.082 14.95 4.70349 14.95 6.49749Z" fill="#848D8C"/>
</svg>
