<svg width="22" height="22" viewBox="0 0 22 22" fill="none" xmlns="http://www.w3.org/2000/svg">
<path d="M21.2326 14.0698C21.2326 18.0298 18.0298 21.2326 14.0698 21.2326L15.1442 19.4419" stroke="#0038FE" stroke-width="1.5" stroke-linecap="round" stroke-linejoin="round"/>
<path d="M0.767442 7.93023C0.767442 3.97023 3.97023 0.767442 7.93023 0.767442L6.85581 2.55814" stroke="#0038FE" stroke-width="1.5" stroke-linecap="round" stroke-linejoin="round"/>
<path d="M21.2326 3.0186V3.13116C21.2326 3.41767 21.0074 3.64279 20.7209 3.64279H11.5116C11.2251 3.64279 11 3.41767 11 3.13116V3.0186C11 1.21767 11.4502 0.767442 13.2716 0.767442H18.9609C20.7823 0.767442 21.2326 1.21767 21.2326 3.0186Z" fill="#0038FE"/>
<path d="M11.5116 4.66611C11.2251 4.66611 11 4.89122 11 5.17773V6.20099V7.21401C11 9.01494 11.4502 9.46518 13.2716 9.46518H18.9609C20.7823 9.46518 21.2326 9.01494 21.2326 7.21401V6.20099V5.17773C21.2326 4.89122 21.0074 4.66611 20.7209 4.66611H11.5116Z" fill="#0038FE"/>
<path d="M11 14.786V14.8986C11 15.1851 10.7749 15.4102 10.4884 15.4102H1.27907C0.992558 15.4102 0.767442 15.1851 0.767442 14.8986V14.786C0.767442 12.9851 1.21767 12.5349 3.03907 12.5349H8.72837C10.5498 12.5349 11 12.9851 11 14.786Z" fill="#0038FE"/>
<path d="M1.27907 16.4335C0.992558 16.4335 0.767442 16.6587 0.767442 16.9452V17.9684V18.9815C0.767442 20.7824 1.21767 21.2326 3.03907 21.2326H8.72837C10.5498 21.2326 11 20.7824 11 18.9815V17.9684V16.9452C11 16.6587 10.7749 16.4335 10.4884 16.4335H1.27907Z" fill="#0038FE"/>
</svg>
