<svg width="23" height="23" viewBox="0 0 23 23" fill="none" xmlns="http://www.w3.org/2000/svg">
<path opacity="0.4" d="M11.5 23C17.8513 23 23 17.8513 23 11.5C23 5.14872 17.8513 0 11.5 0C5.14872 0 0 5.14872 0 11.5C0 17.8513 5.14872 23 11.5 23Z" fill="#848D8C"/>
<path d="M14.0993 11.6151L12.3628 11.0056V7.10708H12.7768C13.7083 7.10708 14.4673 7.92358 14.4673 8.92408C14.4673 9.39558 14.8583 9.78657 15.3297 9.78657C15.8012 9.78657 16.1922 9.39558 16.1922 8.92408C16.1922 6.96908 14.6628 5.38208 12.7768 5.38208H12.3628V4.71508C12.3628 4.24358 11.9718 3.85258 11.5003 3.85258C11.0288 3.85258 10.6378 4.24358 10.6378 4.71508V5.38208H9.89026C8.18826 5.38208 6.79676 6.81958 6.79676 8.57908C6.79676 10.6376 7.99276 11.2931 8.90126 11.6151L10.6378 12.2246V16.1116H10.2238C9.29226 16.1116 8.53326 15.2951 8.53326 14.2946C8.53326 13.8231 8.14226 13.4321 7.67076 13.4321C7.19926 13.4321 6.80826 13.8231 6.80826 14.2946C6.80826 16.2496 8.33776 17.8366 10.2238 17.8366H10.6378V18.5151C10.6378 18.9866 11.0288 19.3776 11.5003 19.3776C11.9718 19.3776 12.3628 18.9866 12.3628 18.5151V17.8481H13.1103C14.8122 17.8481 16.2037 16.4106 16.2037 14.6511C16.1922 12.5811 14.9963 11.9256 14.0993 11.6151ZM9.47626 9.99358C8.88976 9.78658 8.53326 9.59108 8.53326 8.59058C8.53326 7.77408 9.14276 7.11858 9.90176 7.11858H10.6493V10.4076L9.47626 9.99358ZM13.1103 16.1231H12.3628V12.8341L13.5243 13.2366C14.1108 13.4436 14.4673 13.6391 14.4673 14.6396C14.4673 15.4561 13.8578 16.1231 13.1103 16.1231Z" fill="#848D8C"/>
</svg>
