<svg width="15" height="15" viewBox="0 0 15 15" fill="none" xmlns="http://www.w3.org/2000/svg">
<path d="M14.0671 15H0.562683C0.255083 15 0 14.7449 0 14.4373C0 14.1297 0.255083 13.8746 0.562683 13.8746H14.0671C14.3747 13.8746 14.6298 14.1297 14.6298 14.4373C14.6298 14.7449 14.3747 15 14.0671 15Z" fill="#0088FE"/>
<path d="M12.5816 1.10572C11.1261 -0.349757 9.70065 -0.387269 8.20767 1.10572L7.29987 2.01351C7.22485 2.08854 7.19484 2.20858 7.22485 2.31361C7.79503 4.30176 9.38555 5.89228 11.3737 6.46246C11.4037 6.46996 11.4337 6.47747 11.4637 6.47747C11.5463 6.47747 11.6213 6.44746 11.6813 6.38744L12.5816 5.47964C13.3243 4.7444 13.6844 4.03167 13.6844 3.31144C13.692 2.56869 13.3318 1.84846 12.5816 1.10572Z" fill="#0088FE"/>
<path d="M10.0233 7.14504C9.80569 7.04001 9.59562 6.93497 9.39305 6.81493C9.228 6.7174 9.07045 6.61237 8.9129 6.49983C8.78535 6.4173 8.6353 6.29726 8.49276 6.17723C8.47775 6.16972 8.42524 6.12471 8.36522 6.06469C8.11764 5.85462 7.84005 5.58453 7.59247 5.28444C7.56996 5.26943 7.53245 5.21691 7.47993 5.14939C7.4049 5.05936 7.27736 4.90931 7.16483 4.73676C7.0748 4.62422 6.96976 4.45917 6.87223 4.29411C6.75219 4.09155 6.64716 3.88898 6.54212 3.67891C6.40441 3.38381 6.01709 3.29615 5.78682 3.52642L1.56801 7.74524C1.47047 7.84277 1.38044 8.03033 1.35794 8.15787L0.952805 11.0313C0.877781 11.5415 1.02033 12.0216 1.33543 12.3442C1.60552 12.6068 1.98064 12.7494 2.38577 12.7494C2.4758 12.7494 2.56583 12.7419 2.65586 12.7269L5.5368 12.3217C5.67184 12.2992 5.8594 12.2092 5.94943 12.1117L10.1752 7.88588C10.4009 7.66021 10.3161 7.27193 10.0233 7.14504Z" fill="#0088FE"/>
</svg>
