<svg width="19" height="19" viewBox="0 0 19 19" fill="none" xmlns="http://www.w3.org/2000/svg">
<path d="M8.52993 0.992281H6.80671C2.49867 0.992281 0.775448 2.7155 0.775448 7.02355V12.1932C0.775448 16.5012 2.49867 18.2245 6.80671 18.2245H11.9764C16.2844 18.2245 18.0076 16.5012 18.0076 12.1932V10.47" stroke="#848D8C" stroke-width="1.5" stroke-linecap="round" stroke-linejoin="round"/>
<path d="M12.8723 1.871L6.08277 8.66048C5.82429 8.91897 5.56581 9.42732 5.51411 9.79781L5.14362 12.3913C5.00576 13.3304 5.6692 13.9852 6.60836 13.856L9.2018 13.4855C9.56367 13.4338 10.072 13.1753 10.3391 12.9168L17.1286 6.12735C18.3004 4.95557 18.8518 3.59422 17.1286 1.871C15.4054 0.147785 14.044 0.699215 12.8723 1.871Z" stroke="#848D8C" stroke-width="1.5" stroke-miterlimit="10" stroke-linecap="round" stroke-linejoin="round"/>
<path d="M11.8988 2.84457C12.4761 4.90382 14.0873 6.51503 16.1551 7.10092" stroke="#848D8C" stroke-width="1.5" stroke-miterlimit="10" stroke-linecap="round" stroke-linejoin="round"/>
</svg>
