<svg width="20" height="21" viewBox="0 0 20 21" fill="none" xmlns="http://www.w3.org/2000/svg">
<path d="M6.6572 19.2957C7.30575 18.6472 7.67833 17.8192 7.77492 16.9637C7.90601 15.8253 7.52654 14.6455 6.6572 13.7761C6.13973 13.2587 5.50498 12.9137 4.83572 12.755C3.55931 12.4307 2.14491 12.7688 1.13758 13.7761C0.440731 14.473 0.0612567 15.363 0.0129601 16.2806C-0.0215375 16.6739 0.0129604 17.081 0.116454 17.4743C0.275142 18.1435 0.620118 18.7783 1.13758 19.2957C2.66238 20.8205 5.1324 20.8205 6.6572 19.2957ZM5.36009 15.8184C5.76026 15.8184 6.09144 16.1496 6.09144 16.5497C6.08454 16.9568 5.76026 17.2811 5.35319 17.288L4.62874 17.2811L4.63564 17.9779C4.62874 18.385 4.30446 18.7093 3.89739 18.7162C3.49032 18.7093 3.16604 18.385 3.15914 17.9779L3.16604 17.2811L2.44159 17.288C2.03452 17.2811 1.71024 16.9568 1.70334 16.5497C1.71024 16.3496 1.79304 16.1703 1.92413 16.0392C2.05522 15.9081 2.23461 15.8253 2.43469 15.8184L3.16604 15.8184L3.16604 15.0594C3.16604 14.8524 3.24883 14.6731 3.37993 14.542C3.51102 14.4109 3.6904 14.3281 3.89739 14.3281C4.29756 14.3281 4.62874 14.6593 4.62874 15.0594L4.62874 15.8184L5.36009 15.8184Z" fill="#AAB1C2"/>
<path d="M13.5099 1.8539V5.56171H12.0463V1.8539C12.0463 1.59046 11.8121 1.46361 11.656 1.46361C11.6072 1.46361 11.5584 1.47337 11.5096 1.49288L3.77199 4.41034C3.25485 4.60549 2.9231 5.09336 2.9231 5.64953V6.30328C2.03518 6.96678 1.45949 8.03033 1.45949 9.23049V5.64953C1.45949 4.4884 2.17178 3.45412 3.25485 3.04431L11.0022 0.117089C11.2169 0.0390297 11.4413 0 11.656 0C12.6317 0 13.5099 0.790349 13.5099 1.8539Z" fill="#AAB1C2"/>
<path d="M20 12.1487V13.1245C20 13.3879 19.7951 13.6026 19.5219 13.6124H18.0973C17.5801 13.6124 17.1118 13.2318 17.0728 12.7244C17.0435 12.422 17.1606 12.139 17.3557 11.9438C17.5314 11.7585 17.7753 11.6609 18.0387 11.6609H19.5121C19.7951 11.6706 20 11.8853 20 12.1487Z" fill="#AAB1C2"/>
<path d="M18.0275 10.6349H19.0228C19.5595 10.6349 19.9985 10.1958 19.9985 9.65915V9.22983C19.9985 7.21004 18.3495 5.56105 16.3298 5.56105H5.12827C4.29889 5.56105 3.53782 5.83425 2.9231 6.30261C2.03518 6.96611 1.45949 8.02967 1.45949 9.22983V10.9666C1.45949 11.3374 1.84979 11.5716 2.20105 11.4545C2.74747 11.2691 3.32315 11.1715 3.89884 11.1715C6.85533 11.1715 9.26541 13.5816 9.26541 16.5381C9.26541 17.2406 9.08002 18.0115 8.78729 18.6945C8.63118 19.0458 8.87511 19.4653 9.25565 19.4653H16.3298C18.3495 19.4653 19.9985 17.8163 19.9985 15.7966V15.6112C19.9985 15.0745 19.5595 14.6354 19.0228 14.6354H18.1739C17.2372 14.6354 16.3395 14.0597 16.0956 13.1523C15.9004 12.4107 16.1346 11.6887 16.6225 11.2203C16.9835 10.8496 17.4811 10.6349 18.0275 10.6349ZM12.6805 10.4397H7.8018C7.40174 10.4397 7.06999 10.108 7.06999 9.70794C7.06999 9.30788 7.40174 8.97613 7.8018 8.97613H12.6805C13.0805 8.97613 13.4123 9.30788 13.4123 9.70794C13.4123 10.108 13.0805 10.4397 12.6805 10.4397Z" fill="#AAB1C2"/>
</svg>
