<svg width="29" height="29" viewBox="0 0 29 29" fill="none" xmlns="http://www.w3.org/2000/svg">
<path opacity="0.4" d="M27.909 10.3589C27.1986 9.228 26.3867 8.21312 25.5458 7.29974L20.08 12.7656C20.254 13.302 20.3555 13.8819 20.3555 14.4908C20.3555 17.7384 17.7313 20.3481 14.4982 20.3481C13.8893 20.3481 13.3093 20.2466 12.7729 20.0727L7.75653 25.089C9.87327 26.2779 12.164 26.9013 14.4982 26.9013C17.0789 26.9013 19.5871 26.1474 21.8778 24.7411C24.1685 23.3202 26.2272 21.247 27.909 18.6083C29.3588 16.3466 29.3588 12.6351 27.909 10.3589Z" fill="white"/>
<path d="M17.4269 11.5623L11.5696 17.4196C10.8302 16.6657 10.3518 15.6218 10.3518 14.4909C10.3518 12.2147 12.2075 10.3445 14.4983 10.3445C15.6291 10.3445 16.673 10.8229 17.4269 11.5623Z" fill="white"/>
<path opacity="0.4" d="M23.5596 5.42988L18.6447 10.3448C17.5863 9.2719 16.122 8.63398 14.4982 8.63398C11.2506 8.63398 8.64093 11.2582 8.64093 14.4912C8.64093 16.115 9.29335 17.5794 10.3517 18.6377L5.45132 23.5526H5.43683C3.82752 22.2478 2.34871 20.5805 1.08736 18.6087C-0.362455 16.3325 -0.362455 12.6355 1.08736 10.3593C2.76916 7.72059 4.8279 5.64735 7.11862 4.22652C9.40933 2.8347 11.9175 2.06629 14.4982 2.06629C17.7313 2.06629 20.8629 3.25515 23.5596 5.42988Z" fill="white"/>
<path d="M18.6447 14.4911C18.6447 16.7674 16.7889 18.6376 14.4982 18.6376C14.4112 18.6376 14.3387 18.6376 14.2517 18.6086L18.6157 14.2447C18.6447 14.3317 18.6447 14.4042 18.6447 14.4911Z" fill="white"/>
<path d="M28.6629 0.32621C28.228 -0.108737 27.5176 -0.108737 27.0826 0.32621L0.333455 27.0899C-0.101491 27.5248 -0.101491 28.2352 0.333455 28.6702C0.550928 28.8732 0.826394 28.9892 1.11636 28.9892C1.40632 28.9892 1.68179 28.8732 1.89926 28.6557L28.6629 1.89201C29.1124 1.45707 29.1124 0.761156 28.6629 0.32621Z" fill="white"/>
</svg>
