<svg width="22" height="23" viewBox="0 0 22 23" fill="none" xmlns="http://www.w3.org/2000/svg">
<path opacity="0.4" d="M20.0929 9.1984V18.3995C20.0929 21.8499 18.9428 23 15.4924 23H6.29129C2.84089 23 1.69075 21.8499 1.69075 18.3995V9.1984H20.0929Z" fill="#848D8C"/>
<path d="M21.8526 5.74792V6.89805C21.8526 8.1632 21.243 9.19833 19.5523 9.19833H2.30027C0.540564 9.19833 0 8.1632 0 6.89805V5.74792C0 4.48277 0.540564 3.44764 2.30027 3.44764H19.5523C21.243 3.44764 21.8526 4.48277 21.8526 5.74792Z" fill="#848D8C"/>
<path opacity="0.4" d="M10.5118 3.44753H4.163C3.77196 3.02198 3.78346 2.36641 4.19751 1.95236L5.8307 0.319163C6.25625 -0.106388 6.95784 -0.106388 7.38339 0.319163L10.5118 3.44753Z" fill="#848D8C"/>
<path opacity="0.4" d="M17.6779 3.44753H11.3291L14.4575 0.319163C14.883 -0.106388 15.5846 -0.106388 16.0102 0.319163L17.6434 1.95236C18.0574 2.36641 18.0689 3.02198 17.6779 3.44753Z" fill="#848D8C"/>
<path opacity="0.6" d="M7.40692 9.1984V15.1101C7.40692 16.0302 8.41904 16.5708 9.18964 16.0762L10.2708 15.3631C10.6618 15.1101 11.1564 15.1101 11.5359 15.3631L12.5595 16.0532C13.3186 16.5593 14.3422 16.0187 14.3422 15.0986V9.1984H7.40692Z" fill="#848D8C"/>
</svg>
