<svg width="221" height="133" viewBox="0 0 221 133" fill="none" xmlns="http://www.w3.org/2000/svg">
<path opacity="0.1" d="M22.444 118C18.1844 118 14.7013 114.537 15.0204 110.282C15.8369 99.3986 18.3767 88.6973 22.5592 78.5836C27.7271 66.0871 35.3019 54.7324 44.851 45.168C54.4001 35.6036 65.7366 28.0166 78.2131 22.8404C90.6897 17.6642 104.062 15 117.566 15C131.071 15 144.443 17.6642 156.92 22.8404C169.396 28.0166 180.733 35.6036 190.282 45.168C199.831 54.7324 207.406 66.0871 212.574 78.5836C216.756 88.6973 219.296 99.3986 220.112 110.282C220.432 114.537 216.948 118 212.689 118C208.429 118 205.012 114.535 204.636 110.285C203.854 101.432 201.73 92.7347 198.323 84.4961C193.93 73.874 187.491 64.2226 179.374 56.0928C171.258 47.963 161.622 41.5141 151.017 37.1143C140.412 32.7145 129.045 30.45 117.566 30.45C106.088 30.45 94.7212 32.7145 84.1161 37.1143C73.5111 41.5141 63.8751 47.963 55.7583 56.0928C47.6416 64.2226 41.203 73.874 36.8103 84.4961C33.4032 92.7347 31.2786 101.432 30.4966 110.285C30.1213 114.535 26.7036 118 22.444 118Z" fill="white"/>
<path fill-rule="evenodd" clip-rule="evenodd" d="M117.567 41C117.719 41 117.872 41.0005 118.024 41.0014L118.036 39.0014C117.879 39.0005 117.723 39 117.567 39C117.41 39 117.254 39.0005 117.097 39.0014L117.109 41.0014C117.261 41.0005 117.414 41 117.567 41ZM107.079 41.7199C107.381 41.6782 107.683 41.6384 107.986 41.6003L107.737 39.6159C107.426 39.6549 107.116 39.6958 106.806 39.7386L107.079 41.7199ZM127.147 41.6003C127.45 41.6384 127.752 41.6782 128.054 41.7199L128.327 39.7386C128.017 39.6958 127.707 39.6549 127.396 39.6159L127.147 41.6003ZM97.2279 43.7436C97.522 43.6628 97.8166 43.5837 98.1115 43.5064L97.6062 41.5715C97.3036 41.6508 97.0014 41.7319 96.6996 41.8149L97.2279 43.7436ZM137.021 43.5064C137.316 43.5837 137.611 43.6628 137.905 43.7436L138.433 41.8149C138.132 41.7319 137.829 41.6508 137.527 41.5715L137.021 43.5064ZM88.1471 46.8613C88.288 46.8028 88.4291 46.7448 88.5703 46.6872L87.8171 44.8349C87.6722 44.894 87.5275 44.9535 87.3829 45.0135C87.2384 45.0735 87.094 45.1339 86.9498 45.1947L87.7249 47.0379C87.8655 46.9786 88.0062 46.9197 88.1471 46.8613ZM146.563 46.6872C146.704 46.7448 146.845 46.8028 146.986 46.8613C147.127 46.9197 147.268 46.9786 147.408 47.0379L148.183 45.1947C148.039 45.1339 147.895 45.0735 147.75 45.0135C147.606 44.9535 147.461 44.894 147.316 44.8349L146.563 46.6872ZM78.7327 51.5463C78.9959 51.392 79.2599 51.2393 79.525 51.0882L78.5369 49.3502C78.265 49.5053 77.994 49.662 77.724 49.8202L78.7327 51.5463ZM155.608 51.0882C155.873 51.2393 156.137 51.392 156.4 51.5463L157.409 49.8202C157.139 49.662 156.868 49.5053 156.596 49.3502L155.608 51.0882ZM70.4049 57.1918C70.6457 57.0044 70.8877 56.8184 71.1307 56.634L69.9246 55.04C69.6752 55.2293 69.427 55.4201 69.1799 55.6123L70.4049 57.1918ZM164.002 56.634C164.245 56.8184 164.487 57.0044 164.728 57.1918L165.953 55.6123C165.706 55.4201 165.458 55.2293 165.208 55.04L164.002 56.634ZM63.2065 63.5528C63.3143 63.4448 63.4225 63.3371 63.5309 63.2297L62.1274 61.8071C62.0161 61.9173 61.9052 62.0277 61.7945 62.1386C61.6839 62.2494 61.5736 62.3605 61.4636 62.472L62.884 63.8778C62.9911 63.7691 63.0986 63.6608 63.2065 63.5528ZM56.2988 71.4897C56.4829 71.2463 56.6686 71.004 56.8557 70.7627L55.2788 69.5358C55.0868 69.7833 54.8963 70.0319 54.7074 70.2816L56.2988 71.4897ZM178.277 70.7627C178.464 71.004 178.65 71.2463 178.834 71.4897L180.426 70.2816C180.237 70.0319 180.046 69.7833 179.854 69.5358L178.277 70.7627ZM50.7618 79.8974C50.9127 79.632 51.0652 79.3675 51.2192 79.1039L49.4959 78.0936C49.3379 78.364 49.1815 78.6354 49.0266 78.9078L50.7618 79.8974ZM183.914 79.1039C184.068 79.3675 184.22 79.632 184.371 79.8974L186.106 78.9078C185.952 78.6354 185.795 78.364 185.637 78.0936L183.914 79.1039ZM46.5417 88.5334C46.6001 88.3922 46.6589 88.2513 46.718 88.1106L44.8778 87.3342C44.8171 87.4786 44.7568 87.6232 44.6969 87.768C44.657 87.8645 44.6173 87.961 44.5778 88.0576C44.558 88.106 44.5383 88.1544 44.5186 88.2029L46.3679 88.9572C46.4254 88.8158 46.4833 88.6745 46.5417 88.5334ZM188.415 88.1106C188.474 88.2513 188.533 88.3923 188.591 88.5334C188.65 88.6745 188.708 88.8158 188.765 88.9572L190.614 88.2029C190.555 88.0578 190.496 87.9128 190.436 87.768C190.376 87.6232 190.316 87.4786 190.255 87.3342L188.415 88.1106ZM43.1922 98.5138C43.2694 98.2184 43.3483 97.9233 43.429 97.6288L41.5034 97.0996C41.4206 97.4019 41.3396 97.7046 41.2605 98.0077L43.1922 98.5138ZM191.704 97.6288C191.785 97.9233 191.864 98.2184 191.941 98.5138L193.873 98.0077C193.793 97.7046 193.712 97.4019 193.63 97.0996L191.704 97.6288ZM41.2892 108.404C41.3272 108.101 41.367 107.798 41.4086 107.495L39.4304 107.223C39.3878 107.533 39.3469 107.844 39.3079 108.155L41.2892 108.404ZM193.724 107.495C193.766 107.798 193.806 108.101 193.844 108.404L195.825 108.155C195.786 107.844 195.745 107.533 195.703 107.223L193.724 107.495ZM40.6898 118C40.6898 117.847 40.6903 117.694 40.6912 117.542L38.6944 117.53C38.6935 117.687 38.693 117.843 38.693 118H40.6898ZM194.442 117.542C194.443 117.695 194.443 117.847 194.443 118H196.44C196.44 117.843 196.44 117.687 196.439 117.53L194.442 117.542Z" fill="#3C4254"/>
<path d="M171.741 63.0913C171.849 63.1986 171.957 63.3063 172.065 63.4144C172.173 63.5224 172.28 63.6307 172.388 63.7393L173.808 62.3335C173.698 62.2221 173.588 62.111 173.477 62.0001C173.366 61.8893 173.255 61.7788 173.144 61.6687L171.741 63.0913Z" fill="white"/>
<g filter="url(#filter0_d_11_326)">
<path d="M22.4439 118C18.1844 118 14.7012 114.537 15.0203 110.282C16.3446 92.6289 22.1945 75.568 32.0621 60.7763C43.3618 43.838 59.4224 30.6363 78.2131 22.8405C97.0037 15.0446 117.68 13.0049 137.628 16.9792C155.048 20.4498 171.23 28.3706 184.629 39.9154C187.858 42.6977 187.84 47.6136 184.828 50.6304C181.816 53.6472 176.953 53.6174 173.687 50.8782C162.473 41.4717 149.046 35.0066 134.619 32.1323C117.663 28.7542 100.088 30.4879 84.1161 37.1144C68.144 43.7408 54.4925 54.9623 44.8877 69.3599C36.7156 81.6099 31.7855 95.691 30.4965 110.285C30.1212 114.535 26.7035 118 22.4439 118Z" fill="#0088FE"/>
</g>
<path d="M182.462 45C182.462 46.6569 181.121 48 179.467 48C177.813 48 176.472 46.6569 176.472 45C176.472 43.3431 177.813 42 179.467 42C181.121 42 182.462 43.3431 182.462 45Z" fill="white"/>
<defs>
<filter id="filter0_d_11_326" x="0" y="0" width="202.069" height="133" filterUnits="userSpaceOnUse" color-interpolation-filters="sRGB">
<feFlood flood-opacity="0" result="BackgroundImageFix"/>
<feColorMatrix in="SourceAlpha" type="matrix" values="0 0 0 0 0 0 0 0 0 0 0 0 0 0 0 0 0 0 127 0" result="hardAlpha"/>
<feOffset/>
<feGaussianBlur stdDeviation="7.5"/>
<feColorMatrix type="matrix" values="0 0 0 0 0.141176 0 0 0 0 0.423529 0 0 0 0 0.976471 0 0 0 1 0"/>
<feBlend mode="normal" in2="BackgroundImageFix" result="effect1_dropShadow_11_326"/>
<feBlend mode="normal" in="SourceGraphic" in2="effect1_dropShadow_11_326" result="shape"/>
</filter>
</defs>
</svg>
