<svg width="23" height="23" viewBox="0 0 23 23" fill="none" xmlns="http://www.w3.org/2000/svg">
<path opacity="0.4" d="M21.4813 6.79494L14.0759 0.870585C12.6287 -0.28263 10.3675 -0.293936 8.93163 0.859279L1.52618 6.79494C0.463417 7.64289 -0.181027 9.3388 0.0450938 10.6729L1.46965 19.1977C1.79753 21.1084 3.57257 22.6121 5.5059 22.6121H17.4903C19.401 22.6121 21.21 21.0745 21.5378 19.1863L22.9624 10.6616C23.1659 9.3388 22.5215 7.64289 21.4813 6.79494Z" fill="#848D8C"/>
<path d="M11.4985 18.9377C11.0349 18.9377 10.6505 18.5533 10.6505 18.0897V14.6979C10.6505 14.2344 11.0349 13.8499 11.4985 13.8499C11.962 13.8499 12.3464 14.2344 12.3464 14.6979V18.0897C12.3464 18.5533 11.962 18.9377 11.4985 18.9377Z" fill="#848D8C"/>
</svg>
