<svg width="17" height="17" viewBox="0 0 17 17" fill="none" xmlns="http://www.w3.org/2000/svg">
<path d="M7.53446 1.11529C8.07568 0.659121 8.94935 0.659121 9.4751 1.11529L10.6967 2.15905C10.9286 2.35235 11.3693 2.51471 11.6786 2.51471H12.993C13.8125 2.51471 14.4852 3.18736 14.4852 4.00691V5.32129C14.4852 5.63055 14.6476 6.06352 14.8408 6.29547L15.8846 7.51707C16.3408 8.05828 16.3408 8.93195 15.8846 9.4577L14.8408 10.6793C14.6476 10.9112 14.4852 11.3442 14.4852 11.6535V12.9679C14.4852 13.7874 13.8125 14.4601 12.993 14.4601H11.6786C11.3693 14.4601 10.9364 14.6224 10.7044 14.8157L9.48283 15.8595C8.94162 16.3157 8.06795 16.3157 7.5422 15.8595L6.3206 14.8157C6.08865 14.6224 5.64795 14.4601 5.34642 14.4601H3.99338C3.17383 14.4601 2.50118 13.7874 2.50118 12.9679V11.6458C2.50118 11.3442 2.34655 10.9035 2.15326 10.6793L1.10949 9.44997C0.661054 8.91649 0.661054 8.05055 1.10949 7.51707L2.15326 6.28774C2.34655 6.05579 2.50118 5.62282 2.50118 5.32129V4.01464C2.50118 3.19509 3.17383 2.52244 3.99338 2.52244H5.33095C5.64022 2.52244 6.07319 2.36008 6.30514 2.16679L7.53446 1.11529Z" stroke="white" stroke-width="1.5" stroke-linecap="round" stroke-linejoin="round"/>
<path d="M8.50101 5.50677V9.24114" stroke="white" stroke-width="1.5" stroke-linecap="round" stroke-linejoin="round"/>
<path d="M8.49673 11.5914H8.50367" stroke="white" stroke-width="2" stroke-linecap="round" stroke-linejoin="round"/>
</svg>
