<svg width="14" height="23" viewBox="0 0 14 23" fill="none" xmlns="http://www.w3.org/2000/svg">
<path d="M13.8 14.9499V19.5499C13.8 21.4474 12.2475 22.9999 10.35 22.9999H3.45C1.5525 22.9999 0 21.4474 0 19.5499V13.7769L4.47351 13.7999C5.31301 13.7999 6.14099 13.9954 6.89999 14.3749C7.65899 14.7544 8.48698 14.9499 9.33798 14.9499H13.8Z" fill="#848D8C"/>
<path opacity="0.4" d="M13.8 10.1543V14.9498H9.33798C8.48698 14.9498 7.65899 14.7543 6.89999 14.3748C6.14099 13.9953 5.31301 13.7998 4.47351 13.7998L0 13.7768V10.1543C0 9.62526 0.299031 8.90076 0.67853 8.52126L3.11652 6.08326C3.32352 5.87626 3.45 5.57726 3.45 5.27826V3.34627C3.634 3.41527 3.818 3.44977 4.025 3.44977H9.77499C9.98199 3.44977 10.166 3.41527 10.35 3.34627V5.27826C10.35 5.57726 10.4765 5.87626 10.6835 6.08326L13.1215 8.52126C13.501 8.90076 13.8 9.62526 13.8 10.1543Z" fill="#848D8C"/>
<path d="M9.77482 0H4.02482C3.07032 0 2.29982 0.770499 2.29982 1.725C2.29982 2.4725 2.78282 3.1165 3.44982 3.3465C3.63382 3.4155 3.81782 3.45 4.02482 3.45H9.77482C9.98182 3.45 10.1658 3.4155 10.3498 3.3465C11.0168 3.1165 11.4998 2.4725 11.4998 1.725C11.4998 0.770499 10.7293 0 9.77482 0Z" fill="#848D8C"/>
</svg>
