<svg width="21" height="18" viewBox="0 0 21 18" fill="none" xmlns="http://www.w3.org/2000/svg">
<path d="M16 0H6C3 0 1 1.5 1 5V8.56C1 8.93 1.38 9.16 1.71 9.01C2.69 8.56 3.82 8.39 5.01 8.6C7.64 9.07 9.57 11.51 9.5 14.18C9.49 14.6 9.43 15.01 9.32 15.41C9.24 15.72 9.49 16.01 9.81 16.01H16C19 16.01 21 14.51 21 11.01V5C21 1.5 19 0 16 0ZM11 10.5C9.62 10.5 8.5 9.38 8.5 8C8.5 6.62 9.62 5.5 11 5.5C12.38 5.5 13.5 6.62 13.5 8C13.5 9.38 12.38 10.5 11 10.5ZM18.25 10C18.25 10.41 17.91 10.75 17.5 10.75C17.09 10.75 16.75 10.41 16.75 10V6C16.75 5.59 17.09 5.25 17.5 5.25C17.91 5.25 18.25 5.59 18.25 6V10Z" fill="#AAB1C2"/>
<path d="M4 10C2.75 10 1.62 10.59 0.89 11.49C0.33 12.18 0 13.05 0 14C0 16.21 1.8 18 4 18C5.74 18 7.23 16.89 7.77 15.33C7.92 14.92 8 14.47 8 14C8 11.8 6.21 10 4 10ZM6.36 15.74C6.34 15.8 6.3 15.86 6.26 15.9L5.54 16.61C5.45 16.71 5.33 16.75 5.2 16.75C5.07 16.75 4.94 16.71 4.85 16.61C4.69 16.46 4.67 16.22 4.77 16.04H2.76C2.12 16.04 1.6 15.52 1.6 14.87V14.77C1.6 14.49 1.82 14.28 2.09 14.28C2.36 14.28 2.58 14.49 2.58 14.77V14.87C2.58 14.98 2.66 15.07 2.77 15.07H4.78C4.68 14.88 4.7 14.65 4.86 14.49C5.05 14.3 5.36 14.3 5.54 14.49L6.26 15.21C6.3 15.25 6.34 15.31 6.37 15.37C6.41 15.48 6.41 15.62 6.36 15.74ZM6.4 13.23C6.4 13.51 6.18 13.72 5.91 13.72C5.64 13.72 5.42 13.51 5.42 13.23V13.13C5.42 13.02 5.34 12.93 5.23 12.93H3.23C3.33 13.12 3.31 13.35 3.15 13.51C3.06 13.6 2.94 13.65 2.8 13.65C2.68 13.65 2.55 13.6 2.46 13.51L1.74 12.79C1.7 12.75 1.66 12.69 1.63 12.63C1.59 12.51 1.59 12.38 1.63 12.26C1.66 12.21 1.69 12.14 1.74 12.1L2.46 11.39C2.65 11.19 2.96 11.19 3.14 11.39C3.3 11.54 3.32 11.78 3.22 11.96H5.23C5.87 11.96 6.39 12.48 6.39 13.13V13.23H6.4Z" fill="#AAB1C2"/>
</svg>
