<svg width="20" height="17" viewBox="0 0 20 17" fill="none" xmlns="http://www.w3.org/2000/svg">
<path d="M15 0H5C2 0 0 1.5 0 5V12C0 15.5 2 17 5 17H15C18 17 20 15.5 20 12V5C20 1.5 18 0 15 0ZM4.25 11C4.25 11.41 3.91 11.75 3.5 11.75C3.09 11.75 2.75 11.41 2.75 11V6C2.75 5.59 3.09 5.25 3.5 5.25C3.91 5.25 4.25 5.59 4.25 6V11ZM10 11.5C8.34 11.5 7 10.16 7 8.5C7 6.84 8.34 5.5 10 5.5C11.66 5.5 13 6.84 13 8.5C13 10.16 11.66 11.5 10 11.5ZM17.25 11C17.25 11.41 16.91 11.75 16.5 11.75C16.09 11.75 15.75 11.41 15.75 11V6C15.75 5.59 16.09 5.25 16.5 5.25C16.91 5.25 17.25 5.59 17.25 6V11Z" fill="white"/>
</svg>
