<svg width="23" height="22" viewBox="0 0 23 22" fill="none" xmlns="http://www.w3.org/2000/svg">
<path opacity="0.4" d="M22.6407 9.13558L21.5129 13.9459C20.5462 18.1002 18.6359 19.7804 15.0455 19.4351C14.4701 19.3891 13.8487 19.2855 13.1812 19.1244L11.2479 18.6641C6.44909 17.5248 4.96457 15.1542 6.09235 10.3439L7.22012 5.52211C7.45028 4.54394 7.72646 3.69235 8.0717 2.99037C9.41812 0.205465 11.7082 -0.542547 15.5518 0.366576L17.4736 0.815384C22.2954 1.94316 23.7685 4.32529 22.6407 9.13558Z" fill="#848D8C"/>
<path d="M15.0454 19.4353C14.3319 19.9187 13.4343 20.3214 12.3411 20.6782L10.5228 21.2766C5.95419 22.7496 3.54905 21.5183 2.06453 16.9496L0.59152 12.404C-0.881489 7.83539 0.338346 5.41873 4.90698 3.94573L6.72522 3.34732C7.19705 3.19771 7.64585 3.07113 8.07164 2.99057C7.72641 3.69255 7.45022 4.54414 7.22006 5.52231L6.09229 10.3441C4.96452 15.1544 6.44903 17.525 11.2478 18.6643L13.1811 19.1246C13.8486 19.2857 14.47 19.3893 15.0454 19.4353Z" fill="#848D8C"/>
<path d="M17.8417 9.21614C17.7726 9.21614 17.7036 9.20463 17.623 9.19312L12.0417 7.77766C11.5814 7.66258 11.3052 7.19075 11.4203 6.73044C11.5354 6.27012 12.0072 5.99393 12.4675 6.10901L18.0488 7.52448C18.5091 7.63956 18.7853 8.11138 18.6703 8.5717C18.5782 8.95146 18.2215 9.21614 17.8417 9.21614Z" fill="#848D8C"/>
<path d="M14.4705 13.1056C14.4014 13.1056 14.3324 13.0941 14.2518 13.0826L10.903 12.231C10.4427 12.116 10.1665 11.6441 10.2816 11.1838C10.3967 10.7235 10.8685 10.4473 11.3288 10.5624L14.6776 11.414C15.1379 11.5291 15.4141 12.0009 15.2991 12.4612C15.207 12.8525 14.8618 13.1056 14.4705 13.1056Z" fill="#848D8C"/>
</svg>
