<svg width="18" height="20" viewBox="0 0 18 20" fill="none" xmlns="http://www.w3.org/2000/svg">
<path d="M16.7917 12.0401L15.6589 10.1554C15.4083 9.74436 15.1877 8.95237 15.1877 8.47117V6.59649C15.1877 2.95739 12.2303 0 8.60127 0C4.96218 0.0100251 2.00478 2.95739 2.00478 6.59649V8.46115C2.00478 8.94235 1.78423 9.73433 1.54363 10.1454L0.4108 12.0301C-0.0202776 12.7619 -0.120528 13.594 0.150148 14.3158C0.420825 15.0476 1.03235 15.6291 1.83436 15.8897C2.91706 16.2506 4.0098 16.5113 5.12258 16.7017C5.23285 16.7218 5.34313 16.7318 5.4534 16.7519C5.59375 16.7719 5.74413 16.792 5.89451 16.812C6.15516 16.8521 6.41581 16.8822 6.68648 16.9022C7.31806 16.9624 7.95967 16.9925 8.60127 16.9925C9.23285 16.9925 9.86443 16.9624 10.486 16.9022C10.7166 16.8822 10.9471 16.8621 11.1677 16.8321C11.3481 16.812 11.5286 16.792 11.709 16.7619C11.8193 16.7519 11.9296 16.7318 12.0399 16.7118C13.1627 16.5313 14.2755 16.2506 15.3582 15.8897C16.1301 15.6291 16.7216 15.0476 17.0023 14.3058C17.283 13.5539 17.2028 12.7318 16.7917 12.0401ZM9.3331 7.96992C9.3331 8.39097 8.99225 8.73182 8.5712 8.73182C8.15014 8.73182 7.80929 8.39097 7.80929 7.96992V4.86215C7.80929 4.4411 8.15014 4.10025 8.5712 4.10025C8.99225 4.10025 9.3331 4.4411 9.3331 4.86215V7.96992Z" fill="#F2F2F2"/>
<path d="M11.4183 18.005C10.9972 19.1679 9.88445 20 8.58119 20C7.78921 20 7.00726 19.6792 6.45588 19.1078C6.13508 18.807 5.89448 18.406 5.75413 17.995C5.88445 18.015 6.01478 18.0251 6.15513 18.0451C6.38571 18.0752 6.62631 18.1053 6.86691 18.1253C7.43834 18.1754 8.01979 18.2055 8.60124 18.2055C9.17267 18.2055 9.7441 18.1754 10.3055 18.1253C10.516 18.1053 10.7266 18.0952 10.9271 18.0652C11.0875 18.0451 11.2479 18.0251 11.4183 18.005Z" fill="#F2F2F2"/>
</svg>
