<svg width="20" height="21" viewBox="0 0 20 21" fill="none" xmlns="http://www.w3.org/2000/svg">
<path d="M5 0H4C1 0 0 1.79 0 4V5V19C0 19.83 0.94 20.3 1.6 19.8L3.31 18.52C3.71 18.22 4.27 18.26 4.63 18.62L6.29 20.29C6.68 20.68 7.32 20.68 7.71 20.29L9.39 18.61C9.74 18.26 10.3 18.22 10.69 18.52L12.4 19.8C13.06 20.29 14 19.82 14 19V2C14 0.9 14.9 0 16 0H5ZM9.25 11.75H4.75C4.34 11.75 4 11.41 4 11C4 10.59 4.34 10.25 4.75 10.25H9.25C9.66 10.25 10 10.59 10 11C10 11.41 9.66 11.75 9.25 11.75ZM10 7.75H4C3.59 7.75 3.25 7.41 3.25 7C3.25 6.59 3.59 6.25 4 6.25H10C10.41 6.25 10.75 6.59 10.75 7C10.75 7.41 10.41 7.75 10 7.75Z" fill="#AAB1C2"/>
<path d="M16.01 0V1.5C16.67 1.5 17.3 1.77 17.76 2.22C18.24 2.71 18.5 3.34 18.5 4V6.42C18.5 7.16 18.17 7.5 17.42 7.5H15.5V2.01C15.5 1.73 15.73 1.5 16.01 1.5V0ZM16.01 0C14.9 0 14 0.9 14 2.01V9H17.42C19 9 20 8 20 6.42V4C20 2.9 19.55 1.9 18.83 1.17C18.1 0.45 17.11 0.01 16.01 0C16.02 0 16.01 0 16.01 0Z" fill="#AAB1C2"/>
</svg>
