<svg width="23" height="23" viewBox="0 0 23 23" fill="none" xmlns="http://www.w3.org/2000/svg">
<path d="M23 18.3999V19.5499C23 21.4474 23 22.9999 19.55 22.9999H3.45C-2.74181e-07 22.9999 0 21.4474 0 19.5499V18.3999C0 17.7674 0.517499 17.2499 1.15 17.2499H21.85C22.4825 17.2499 23 17.7674 23 18.3999Z" fill="#848D8C"/>
<path opacity="0.4" d="M21.5621 12.65V17.25H1.49464V12.65C1.49464 8.23398 4.61113 4.54249 8.76263 3.65699C9.38363 3.51899 10.0276 3.44999 10.6946 3.44999H12.3621C13.0291 3.44999 13.6846 3.51899 14.3056 3.65699C18.4571 4.55399 21.5621 8.23398 21.5621 12.65Z" fill="#848D8C"/>
<path d="M14.4092 2.875C14.4092 3.151 14.3747 3.404 14.3057 3.657C13.6847 3.519 13.0292 3.45 12.3622 3.45H10.6947C10.0277 3.45 9.38366 3.519 8.76267 3.657C8.69367 3.404 8.65917 3.151 8.65917 2.875C8.65917 1.288 9.94716 0 11.5342 0C13.1212 0 14.4092 1.288 14.4092 2.875Z" fill="#848D8C"/>
<path d="M14.9841 11.2124H8.08415C7.61265 11.2124 7.22165 10.8214 7.22165 10.3499C7.22165 9.8784 7.61265 9.4874 8.08415 9.4874H14.9841C15.4556 9.4874 15.8466 9.8784 15.8466 10.3499C15.8466 10.8214 15.4556 11.2124 14.9841 11.2124Z" fill="#848D8C"/>
</svg>
