<svg width="22" height="22" viewBox="0 0 22 22" fill="none" xmlns="http://www.w3.org/2000/svg">
<path opacity="0.4" d="M0.767442 8.69767C0.347907 8.69767 0 8.34977 0 7.93023V5.37209C0 2.40465 2.41488 0 5.37209 0H7.93023C8.34977 0 8.69767 0.347907 8.69767 0.767442C8.69767 1.18698 8.34977 1.53488 7.93023 1.53488H5.37209C3.25395 1.53488 1.53488 3.25395 1.53488 5.37209V7.93023C1.53488 8.34977 1.18698 8.69767 0.767442 8.69767Z" fill="#292D32"/>
<path d="M21.2326 8.69767C20.813 8.69767 20.4651 8.34977 20.4651 7.93023V5.37209C20.4651 3.25395 18.746 1.53488 16.6279 1.53488H14.0698C13.6502 1.53488 13.3023 1.18698 13.3023 0.767442C13.3023 0.347907 13.6502 0 14.0698 0H16.6279C19.5851 0 22 2.40465 22 5.37209V7.93023C22 8.34977 21.6521 8.69767 21.2326 8.69767Z" fill="#292D32"/>
<path opacity="0.4" d="M16.6279 22H15.093C14.6735 22 14.3256 21.6521 14.3256 21.2326C14.3256 20.813 14.6735 20.4651 15.093 20.4651H16.6279C18.746 20.4651 20.4651 18.746 20.4651 16.6279V15.093C20.4651 14.6735 20.813 14.3256 21.2326 14.3256C21.6521 14.3256 22 14.6735 22 15.093V16.6279C22 19.5953 19.5851 22 16.6279 22Z" fill="#292D32"/>
<path d="M7.93023 22H5.37209C2.41488 22 0 19.5953 0 16.6279V14.0698C0 13.6502 0.347907 13.3023 0.767442 13.3023C1.18698 13.3023 1.53488 13.6502 1.53488 14.0698V16.6279C1.53488 18.746 3.25395 20.4651 5.37209 20.4651H7.93023C8.34977 20.4651 8.69767 20.813 8.69767 21.2326C8.69767 21.6521 8.34977 22 7.93023 22Z" fill="#292D32"/>
<path d="M7.93023 4.09302H5.88372C4.71721 4.09302 4.09302 4.70698 4.09302 5.88372V7.93023C4.09302 9.10698 4.71721 9.72093 5.88372 9.72093H7.93023C9.09674 9.72093 9.72093 9.10698 9.72093 7.93023V5.88372C9.72093 4.70698 9.09674 4.09302 7.93023 4.09302Z" fill="#292D32"/>
<path opacity="0.4" d="M16.1163 4.09302H14.0698C12.9033 4.09302 12.2791 4.70698 12.2791 5.88372V7.93023C12.2791 9.10698 12.9033 9.72093 14.0698 9.72093H16.1163C17.2828 9.72093 17.907 9.10698 17.907 7.93023V5.88372C17.907 4.70698 17.2828 4.09302 16.1163 4.09302Z" fill="#292D32"/>
<path opacity="0.4" d="M7.93023 12.2791H5.88372C4.71721 12.2791 4.09302 12.893 4.09302 14.0698V16.1163C4.09302 17.293 4.71721 17.907 5.88372 17.907H7.93023C9.09674 17.907 9.72093 17.293 9.72093 16.1163V14.0698C9.72093 12.893 9.09674 12.2791 7.93023 12.2791Z" fill="#292D32"/>
<path d="M16.1163 12.2791H14.0698C12.9033 12.2791 12.2791 12.893 12.2791 14.0698V16.1163C12.2791 17.293 12.9033 17.907 14.0698 17.907H16.1163C17.2828 17.907 17.907 17.293 17.907 16.1163V14.0698C17.907 12.893 17.2828 12.2791 16.1163 12.2791Z" fill="#292D32"/>
</svg>
