<svg width="19" height="17" viewBox="0 0 19 17" fill="none" xmlns="http://www.w3.org/2000/svg">
<path d="M17.9445 3.77774H12.793" stroke="#848D8C" stroke-width="1.5" stroke-miterlimit="10" stroke-linecap="round" stroke-linejoin="round"/>
<path d="M4.20707 3.77774H0.772727" stroke="#848D8C" stroke-width="1.5" stroke-miterlimit="10" stroke-linecap="round" stroke-linejoin="round"/>
<path d="M7.64141 6.78283C9.30106 6.78283 10.6465 5.43742 10.6465 3.77778C10.6465 2.11813 9.30106 0.772727 7.64141 0.772727C5.98177 0.772727 4.63636 2.11813 4.63636 3.77778C4.63636 5.43742 5.98177 6.78283 7.64141 6.78283Z" stroke="#848D8C" stroke-width="1.5" stroke-miterlimit="10" stroke-linecap="round" stroke-linejoin="round"/>
<path d="M17.9445 13.2223H14.5101" stroke="#848D8C" stroke-width="1.5" stroke-miterlimit="10" stroke-linecap="round" stroke-linejoin="round"/>
<path d="M5.92424 13.2223H0.772727" stroke="#848D8C" stroke-width="1.5" stroke-miterlimit="10" stroke-linecap="round" stroke-linejoin="round"/>
<path d="M11.0758 16.2272C12.7354 16.2272 14.0809 14.8818 14.0809 13.2222C14.0809 11.5625 12.7354 10.2171 11.0758 10.2171C9.41616 10.2171 8.07075 11.5625 8.07075 13.2222C8.07075 14.8818 9.41616 16.2272 11.0758 16.2272Z" stroke="#848D8C" stroke-width="1.5" stroke-miterlimit="10" stroke-linecap="round" stroke-linejoin="round"/>
</svg>
