<svg width="22" height="17" viewBox="0 0 22 17" fill="none" xmlns="http://www.w3.org/2000/svg">
<path d="M20.4174 10.8102H15.6935V14.9105C15.6935 14.9931 15.6935 15.0689 15.6935 15.148C15.6935 15.2169 15.6935 15.2823 15.6905 15.3512C15.6884 15.4988 15.6745 15.6461 15.6488 15.7918C15.6209 15.9366 15.5704 16.0769 15.4988 16.2084C15.4255 16.3398 15.3298 16.4595 15.2152 16.563C15.1001 16.6665 14.9688 16.7536 14.8255 16.8212C14.6804 16.8861 14.5263 16.9324 14.3675 16.9589C14.2082 16.9818 14.0474 16.9945 13.8862 16.9968C13.8112 16.9968 13.7385 17.0002 13.6649 17.0002H7.588C7.51298 17.0002 7.44058 16.9968 7.36669 16.9968C7.20551 16.9945 7.0447 16.9818 6.88544 16.9589C6.72678 16.9324 6.57281 16.886 6.42782 16.8212C6.28455 16.7536 6.15317 16.6665 6.0381 16.563C5.92348 16.4595 5.82774 16.3398 5.75452 16.2084C5.68293 16.0769 5.6324 15.9366 5.60448 15.7918C5.57868 15.6461 5.56464 15.4988 5.56247 15.3512C5.56247 15.2823 5.55947 15.2169 5.55947 15.148C5.55947 15.0689 5.55947 14.9931 5.55947 14.9105V10.8102H0.760857C0.275482 10.8102 -0.347179 9.84967 0.235722 9.31605C0.731225 8.86505 8.51899 1.73858 10.1488 0.254763C10.2685 0.119678 10.4377 0.0291386 10.6248 0H10.6375C10.7994 0.00805575 10.9496 0.0795256 11.0501 0.196236C12.6799 1.68006 20.4943 8.86505 20.9902 9.31605C21.5735 9.84967 21.0851 10.8102 20.4174 10.8102Z" fill="black"/>
</svg>
