<svg width="22" height="23" viewBox="0 0 22 23" fill="none" xmlns="http://www.w3.org/2000/svg">
<path d="M21.9527 14.399L21.4864 16.5144C20.6789 20.154 17.8241 22.7471 13.7069 22.7471H8.29312C4.17591 22.7471 1.32117 20.154 0.513648 16.5144L0.04733 14.399C-0.18014 13.364 0.434019 12.1925 1.42351 11.7944L3.03857 11.1461L9.30538 8.63262C9.8513 8.41652 10.4313 8.30278 11 8.30278C11.5687 8.30278 12.1487 8.41652 12.6947 8.63262L18.9615 11.1461L20.5765 11.7944C21.566 12.1925 22.1802 13.364 21.9527 14.399Z" fill="#848D8C"/>
<path opacity="0.4" d="M18.9616 6.82409V11.146L12.6947 8.63247C11.6029 8.20028 10.3973 8.20028 9.30546 8.63247L3.03865 11.146V6.82409C3.03865 4.94746 4.57407 3.41204 6.4507 3.41204H15.5495C17.4261 3.41204 18.9616 4.94746 18.9616 6.82409Z" fill="#848D8C"/>
<path d="M13.8433 3.41205H8.15659V1.13735C8.15659 0.511807 8.6684 0 9.29394 0H12.706C13.3315 0 13.8433 0.511807 13.8433 1.13735V3.41205Z" fill="#848D8C"/>
</svg>
