<svg width="21" height="21" viewBox="0 0 21 21" fill="none" xmlns="http://www.w3.org/2000/svg">
<path opacity="0.4" d="M1.59721 14.2425L6.74782 19.3931C8.86265 21.5079 12.2964 21.5079 14.4226 19.3931L19.414 14.4017C21.5288 12.2869 21.5288 8.85311 19.414 6.72692L14.252 1.58767C13.1719 0.50752 11.6824 -0.0723504 10.1588 0.00723964L4.47382 0.28012C2.19982 0.38245 0.391988 2.19028 0.278288 4.45291L0.00540754 10.1379C-0.0628125 11.6729 0.517058 13.1623 1.59721 14.2425Z" fill="#848D8C"/>
<path d="M7.65776 10.9224C9.46625 10.9224 10.9323 9.45634 10.9323 7.64785C10.9323 5.83936 9.46625 4.37329 7.65776 4.37329C5.84927 4.37329 4.38319 5.83936 4.38319 7.64785C4.38319 9.45634 5.84927 10.9224 7.65776 10.9224Z" fill="#848D8C"/>
<path d="M11.637 17.0281C11.421 17.0281 11.2049 16.9485 11.0344 16.7779C10.7046 16.4482 10.7046 15.9024 11.0344 15.5727L15.5824 11.0247C15.9121 10.695 16.4579 10.695 16.7876 11.0247C17.1173 11.3544 17.1173 11.9002 16.7876 12.2299L12.2396 16.7779C12.069 16.9485 11.853 17.0281 11.637 17.0281Z" fill="#848D8C"/>
</svg>
