<svg width="22" height="23" viewBox="0 0 22 23" fill="none" xmlns="http://www.w3.org/2000/svg">
<path opacity="0.4" d="M18.1628 12.4658V18.1339C18.1628 19.594 17.0245 21.1576 15.6564 21.6175L11.9888 22.8362C11.345 23.0546 10.2987 23.0546 9.6664 22.8362L5.99882 21.6175C4.61917 21.1576 3.49245 19.594 3.49245 18.1339L3.50395 12.4658L8.58567 15.777C9.82736 16.5932 11.8738 16.5932 13.1155 15.777L18.1628 12.4658Z" fill="#848D8C"/>
<path d="M20.0021 5.13058L13.1153 0.612221C11.8736 -0.204074 9.82715 -0.204074 8.58546 0.612221L1.66421 5.13058C-0.554735 6.56772 -0.554735 9.8214 1.66421 11.27L3.50374 12.4657L8.58546 15.7769C9.82715 16.5932 11.8736 16.5932 13.1153 15.7769L18.1626 12.4657L19.7377 11.431V14.9491C19.7377 15.4205 20.1286 15.8114 20.5999 15.8114C21.0713 15.8114 21.4622 15.4205 21.4622 14.9491V9.29254C21.9221 7.80941 21.4507 6.08484 20.0021 5.13058Z" fill="#848D8C"/>
</svg>
