<svg width="23" height="19" viewBox="0 0 23 19" fill="none" xmlns="http://www.w3.org/2000/svg">
<path opacity="0.4" d="M23.0001 6.15551V12.5756C23.0001 17.293 21.5619 18.7312 16.8446 18.7312H9.08983V15.2565C9.08983 14.8192 8.72165 14.4511 8.28443 14.4511V4.28009C8.72165 4.28009 9.08983 3.91191 9.08983 3.4747V0H16.8446C21.5619 0 23.0001 1.4382 23.0001 6.15551Z" fill="#848D8C"/>
<path d="M18.9392 9.25037C19.1348 9.06628 19.2038 8.77864 19.1233 8.52552C19.0428 8.26089 18.8241 8.0768 18.548 8.04228L17.0753 7.82368C17.0178 7.81217 16.9717 7.77765 16.9487 7.73163L16.2929 6.39698C16.1779 6.15536 15.9247 6.00579 15.6601 6.00579C15.384 6.00579 15.1423 6.15536 15.0158 6.39698L14.36 7.73163C14.337 7.78916 14.2794 7.82368 14.2219 7.82368L12.7492 8.04228C12.4845 8.0768 12.2544 8.2724 12.1739 8.52552C12.0934 8.79015 12.1624 9.06628 12.358 9.25037L13.428 10.2859C13.474 10.3204 13.4855 10.3894 13.474 10.447L13.2209 11.9082C13.1749 12.1728 13.2784 12.4489 13.5085 12.5985C13.6351 12.6906 13.7732 12.7366 13.9228 12.7366C14.0378 12.7366 14.1529 12.7136 14.2564 12.656L15.5796 11.9657C15.6256 11.9427 15.6946 11.9427 15.7406 11.9657L17.0638 12.656C17.3054 12.7826 17.593 12.7596 17.8117 12.5985C18.0303 12.4374 18.1453 12.1728 18.0993 11.8967L17.8462 10.4355C17.8347 10.3779 17.8577 10.3204 17.8922 10.2744L18.9392 9.25037Z" fill="#848D8C"/>
<path d="M8.28502 4.28009V14.4511C7.8478 14.4511 7.47962 14.8192 7.47962 15.2565V18.7312H6.14497C1.60025 18.7312 0.104517 17.3735 0.000966843 13.1394C-0.0105388 12.9208 0.0815063 12.7137 0.231079 12.5641C0.380653 12.4031 0.599259 12.3225 0.806361 12.3225C2.41715 12.3225 3.7403 10.9994 3.7403 9.37709C3.7403 7.75479 2.41715 6.42014 0.806361 6.42014C0.576248 6.42014 0.380653 6.3396 0.231079 6.17852C0.0815063 6.02895 -0.0105388 5.81034 0.000966843 5.60324C0.104517 1.35766 1.60025 0 6.14497 0H7.47962V3.4747C7.47962 3.92342 7.8478 4.28009 8.28502 4.28009Z" fill="#848D8C"/>
</svg>
