<svg width="24" height="24" viewBox="0 0 24 24" fill="none" xmlns="http://www.w3.org/2000/svg">
<path opacity="0.4" d="M16.0001 2.28626V12.5715C16.0001 13.8285 14.9716 14.8571 13.7145 14.8571H1.14371V7.566C1.97796 8.56023 3.25792 9.17735 4.675 9.14307C5.82922 9.12021 6.86915 8.67452 7.64625 7.9317C8.00052 7.63457 8.29767 7.25743 8.52623 6.84603C8.93764 6.14892 9.16617 5.32608 9.14332 4.46898C9.10903 3.1319 8.51479 1.95485 7.58912 1.14346H14.8573C15.4859 1.14346 16.0001 1.65772 16.0001 2.28626Z" fill="#848D8C"/>
<path d="M23.9997 14.8571V18.2855C23.9997 20.1825 22.4684 21.7139 20.5713 21.7139H19.4285C19.4285 20.4568 18.4 19.4283 17.1429 19.4283C15.8858 19.4283 14.8573 20.4568 14.8573 21.7139H10.2861C10.2861 20.4568 9.2576 19.4283 8.00051 19.4283C6.74343 19.4283 5.71491 20.4568 5.71491 21.7139H4.57211C2.67506 21.7139 1.14371 20.1825 1.14371 18.2855V14.8571H13.7145C14.9716 14.8571 16.0001 13.8285 16.0001 12.5715V4.57186H18.1029C18.9257 4.57186 19.68 5.01756 20.0914 5.7261L22.0455 9.14306H20.5713C19.9428 9.14306 19.4285 9.65732 19.4285 10.2859V13.7143C19.4285 14.3428 19.9428 14.8571 20.5713 14.8571H23.9997Z" fill="#848D8C"/>
<path opacity="0.4" d="M8.00067 23.9996C9.26297 23.9996 10.2863 22.9763 10.2863 21.714C10.2863 20.4517 9.26297 19.4284 8.00067 19.4284C6.73837 19.4284 5.71507 20.4517 5.71507 21.714C5.71507 22.9763 6.73837 23.9996 8.00067 23.9996Z" fill="#848D8C"/>
<path opacity="0.4" d="M17.1434 23.9996C18.4057 23.9996 19.429 22.9763 19.429 21.714C19.429 20.4517 18.4057 19.4284 17.1434 19.4284C15.8811 19.4284 14.8578 20.4517 14.8578 21.714C14.8578 22.9763 15.8811 23.9996 17.1434 23.9996Z" fill="#848D8C"/>
<path opacity="0.4" d="M23.9998 13.1773V14.8572H20.5714C19.9429 14.8572 19.4286 14.343 19.4286 13.7144V10.286C19.4286 9.65747 19.9429 9.14321 20.5714 9.14321H22.0456L23.7027 12.0459C23.897 12.3887 23.9998 12.7774 23.9998 13.1773Z" fill="#848D8C"/>
<path d="M7.58953 1.14366C6.76671 0.412268 5.66957 -0.0219964 4.46963 0.000859617C3.3954 0.0237156 2.41261 0.423688 1.63551 1.06366C0.606988 1.92076 -0.0329718 3.23502 0.00131219 4.67495C0.0241682 5.53205 0.27559 6.33198 0.721282 7.00623C0.84699 7.20051 0.984121 7.39477 1.14411 7.56619C1.97836 8.56043 3.25832 9.17755 4.6754 9.14327C5.82963 9.12041 6.86955 8.67472 7.64665 7.9319C8.00092 7.63477 8.29807 7.25763 8.52663 6.84622C8.93804 6.14912 9.16657 5.32628 9.14372 4.46918C9.10943 3.1321 8.51519 1.95505 7.58953 1.14366ZM6.92668 4.02354L4.5382 6.33195C4.36678 6.49194 4.16112 6.57196 3.94399 6.57196C3.72686 6.57196 3.52113 6.49194 3.34971 6.33195L2.19547 5.23491C1.85263 4.90349 1.84125 4.36638 2.17266 4.02354C2.50407 3.6807 3.04119 3.66925 3.38403 4.00066L3.94399 4.53774L5.73819 2.80074C6.08103 2.46932 6.61815 2.4807 6.94956 2.82354C7.28097 3.15496 7.26952 3.69213 6.92668 4.02354Z" fill="#848D8C"/>
</svg>
