<svg width="22" height="22" viewBox="0 0 22 22" fill="none" xmlns="http://www.w3.org/2000/svg">
<path d="M16.1163 12.4326V15.5023C16.1163 19.5953 14.4791 21.2326 10.386 21.2326H6.49767C2.40465 21.2326 0.767442 19.5953 0.767442 15.5023V11.614C0.767442 7.52093 2.40465 5.88372 6.49767 5.88372H9.56744" stroke="#0088FE" stroke-width="1.5" stroke-linecap="round" stroke-linejoin="round"/>
<path d="M16.1163 12.4326H12.8418C10.386 12.4326 9.56742 11.614 9.56742 9.15814V5.88372L16.1163 12.4326Z" stroke="#0088FE" stroke-width="1.5" stroke-linecap="round" stroke-linejoin="round"/>
<path d="M10.5907 0.767442H14.6837" stroke="#0088FE" stroke-width="1.5" stroke-linecap="round" stroke-linejoin="round"/>
<path d="M5.88372 3.83721C5.88372 2.1386 7.25488 0.767442 8.95349 0.767442H11.6344" stroke="#0088FE" stroke-width="1.5" stroke-linecap="round" stroke-linejoin="round"/>
<path d="M21.2325 6.90698V13.2409C21.2325 14.827 19.9432 16.1163 18.3571 16.1163" stroke="#0088FE" stroke-width="1.5" stroke-linecap="round" stroke-linejoin="round"/>
<path d="M21.2326 6.90698H18.1628C15.8605 6.90698 15.093 6.13953 15.093 3.83721V0.767442L21.2326 6.90698Z" stroke="#0088FE" stroke-width="1.5" stroke-linecap="round" stroke-linejoin="round"/>
</svg>
