<svg width="37" height="42" viewBox="0 0 37 42" fill="none" xmlns="http://www.w3.org/2000/svg">
<path d="M35.8536 13.7268C33.7024 4.26146 25.4458 0 18.1931 0C18.1931 0 18.1931 0 18.1726 0C10.9404 0 2.66337 4.24098 0.512151 13.7063C-1.88492 24.2781 4.58923 33.2312 10.4487 38.8654C12.6204 40.9551 15.4068 42 18.1931 42C20.9795 42 23.7658 40.9551 25.917 38.8654C31.7766 33.2312 38.2507 24.2985 35.8536 13.7268ZM18.1931 23.9912C14.6283 23.9912 11.7395 21.1024 11.7395 17.5376C11.7395 13.9727 14.6283 11.0839 18.1931 11.0839C21.758 11.0839 24.6468 13.9727 24.6468 17.5376C24.6468 21.1024 21.758 23.9912 18.1931 23.9912Z" fill="#FF1E39"/>
</svg>
