<svg width="24" height="24" viewBox="0 0 24 24" fill="none" xmlns="http://www.w3.org/2000/svg">
<path d="M19.1427 5.77135C18.8684 5.72563 18.5827 5.71422 18.2856 5.71422H6.85712C6.53712 5.71422 6.22855 5.73707 5.93141 5.78279C6.09141 5.46279 6.31998 5.16568 6.59426 4.8914L10.3085 1.16571C11.8742 -0.388568 14.4113 -0.388568 15.977 1.16571L17.977 3.1885C18.7085 3.90849 19.097 4.82278 19.1427 5.77135Z" fill="#848D8C"/>
<path d="M4.57139 14.8569C2.0457 14.8569 0 16.9026 0 19.4283C0 20.2854 0.239998 21.0969 0.662852 21.7826C1.45142 23.1083 2.90283 23.9997 4.57139 23.9997C6.23995 23.9997 7.69137 23.1083 8.47993 21.7826C8.90279 21.0969 9.14278 20.2854 9.14278 19.4283C9.14278 16.9026 7.09709 14.8569 4.57139 14.8569ZM6.27424 20.2626H5.42853V21.154C5.42853 21.6226 5.03996 22.0111 4.57139 22.0111C4.10282 22.0111 3.71426 21.6226 3.71426 21.154V20.2626H2.86855C2.39998 20.2626 2.01141 19.874 2.01141 19.4054C2.01141 18.9369 2.39998 18.5483 2.86855 18.5483H3.71426V17.7369C3.71426 17.2683 4.10282 16.8798 4.57139 16.8798C5.03996 16.8798 5.42853 17.2683 5.42853 17.7369V18.5483H6.27424C6.7428 18.5483 7.13137 18.9369 7.13137 19.4054C7.13137 19.874 6.75423 20.2626 6.27424 20.2626Z" fill="#848D8C"/>
<path opacity="0.4" d="M23.9997 11.4283V17.1425C23.9997 20.5711 21.714 22.8568 18.2855 22.8568H7.577C7.93128 22.5596 8.23985 22.1939 8.47985 21.7825C8.9027 21.0968 9.1427 20.2854 9.1427 19.4282C9.1427 16.9025 7.097 14.8568 4.57131 14.8568C3.19989 14.8568 1.97704 15.4625 1.14276 16.4111V11.4283C1.14276 8.31975 3.01703 6.14834 5.9313 5.78263C6.22844 5.73691 6.53701 5.71406 6.857 5.71406H18.2855C18.5826 5.71406 18.8683 5.72547 19.1426 5.77119C22.0912 6.11404 23.9997 8.2969 23.9997 11.4283Z" fill="#848D8C"/>
<path d="M23.9999 11.9998H20.5714C19.3143 11.9998 18.2857 13.0283 18.2857 14.2854C18.2857 15.5426 19.3143 16.5711 20.5714 16.5711H23.9999" fill="#848D8C"/>
</svg>
