<svg width="20" height="20" viewBox="0 0 20 20" fill="none" xmlns="http://www.w3.org/2000/svg">
<path d="M9.70292 0.204033L7.2922 5.81571H4.88148C4.48136 5.81571 4.09125 5.84572 3.71113 5.92574L4.71143 3.52503L4.75144 3.435L4.81146 3.27495C4.84147 3.20493 4.86148 3.14491 4.89149 3.0949C6.05183 0.404092 7.35222 -0.436159 9.70292 0.204033Z" fill="white"/>
<path d="M16.4949 6.08586L16.4749 6.07586C15.8748 5.9058 15.2646 5.81578 14.6444 5.81578H8.38251L10.6332 0.584213L10.6632 0.514192C10.8032 0.564207 10.9533 0.634228 11.1033 0.684243L13.314 1.61452C14.5444 2.12467 15.4046 2.65483 15.9348 3.29502C16.0248 3.41506 16.1048 3.52509 16.1848 3.65513C16.2749 3.79517 16.3449 3.93522 16.3849 4.08526C16.4249 4.17529 16.4549 4.25531 16.4749 4.34534C16.625 4.85549 16.635 5.43566 16.4949 6.08586Z" fill="white"/>
<path d="M10.2831 15.6587H10.5331C10.8332 15.6587 11.0833 15.3886 11.0833 15.0585C11.0833 14.6384 10.9633 14.5783 10.7032 14.4783L10.2831 14.3283V15.6587Z" fill="white"/>
<path d="M16.0548 7.51621C15.6047 7.38617 15.1345 7.31615 14.6444 7.31615H4.88146C4.20126 7.31615 3.56106 7.44619 2.96089 7.70627C1.22036 8.45649 0 10.187 0 12.1976V14.1482C0 14.3883 0.0200059 14.6183 0.0500149 14.8584C0.270081 18.0394 1.97059 19.7399 5.15154 19.9499C5.38161 19.9799 5.61168 19.9999 5.86175 19.9999H13.6641C17.3652 19.9999 19.3158 18.2394 19.5058 14.7384C19.5158 14.5483 19.5258 14.3483 19.5258 14.1482V12.1976C19.5258 9.98695 18.0554 8.1264 16.0548 7.51621ZM11.0433 13.498C11.5034 13.658 12.1236 13.9982 12.1236 15.0585C12.1236 15.9687 11.4134 16.699 10.5332 16.699H10.2831V16.919C10.2831 17.2091 10.053 17.4392 9.76292 17.4392C9.47283 17.4392 9.24276 17.2091 9.24276 16.919V16.699H9.15274C8.19245 16.699 7.40221 15.8887 7.40221 14.8884C7.40221 14.5983 7.63228 14.3683 7.92237 14.3683C8.21246 14.3683 8.44253 14.5983 8.44253 14.8884C8.44253 15.3085 8.76262 15.6586 9.15274 15.6586H9.24276V13.9681L8.48254 13.6981C8.0224 13.538 7.40221 13.1979 7.40221 12.1376C7.40221 11.2273 8.11243 10.4971 8.99269 10.4971H9.24276V10.277C9.24276 9.98695 9.47283 9.75688 9.76292 9.75688C10.053 9.75688 10.2831 9.98695 10.2831 10.277V10.4971H10.3731C11.3334 10.4971 12.1236 11.3073 12.1236 12.3076C12.1236 12.5977 11.8936 12.8278 11.6035 12.8278C11.3134 12.8278 11.0833 12.5977 11.0833 12.3076C11.0833 11.8875 10.7632 11.5374 10.3731 11.5374H10.2831V13.2279L11.0433 13.498Z" fill="white"/>
<path d="M8.44253 12.1377C8.44253 12.5578 8.56256 12.6178 8.82264 12.7179L9.24277 12.8679V11.5375H8.99269C8.6826 11.5375 8.44253 11.8076 8.44253 12.1377Z" fill="white"/>
</svg>
