<svg width="32" height="20" viewBox="0 0 32 20" fill="none" xmlns="http://www.w3.org/2000/svg">
<path opacity="0.4" d="M23.3671 0C20.9351 0 18.0338 0.924445 18.0338 5.33333V13.8667C18.0338 18.2756 20.9351 19.2 23.3671 19.2C25.7991 19.2 28.7004 18.2756 28.7004 13.8667V5.33333C28.7004 0.924445 25.7991 0 23.3671 0Z" fill="white"/>
<path opacity="0.4" d="M8.6329 0C6.2009 0 3.29957 0.924445 3.29957 5.33333V13.8667C3.29957 18.2756 6.2009 19.2 8.6329 19.2C11.0649 19.2 13.9662 18.2756 13.9662 13.8667V5.33333C13.9662 0.924445 11.0649 0 8.6329 0Z" fill="white"/>
<path d="M18.0338 8.53333H13.9662V10.6667H18.0338V8.53333Z" fill="white"/>
<path d="M30.9333 14.2224C30.3502 14.2224 29.8667 13.7388 29.8667 13.1557V6.04461C29.8667 5.4615 30.3502 4.97794 30.9333 4.97794C31.5164 4.97794 32 5.4615 32 6.04461V13.1557C32 13.7388 31.5164 14.2224 30.9333 14.2224Z" fill="white"/>
<path d="M1.06667 14.2224C0.483556 14.2224 0 13.7388 0 13.1557V6.04461C0 5.4615 0.483556 4.97794 1.06667 4.97794C1.64978 4.97794 2.13333 5.4615 2.13333 6.04461V13.1557C2.13333 13.7388 1.64978 14.2224 1.06667 14.2224Z" fill="white"/>
</svg>
